<?xml version="1.0" encoding="UTF-8" standalone="no"?>
<svg width="24px" height="24px" viewBox="0 0 24 24" version="1.1" xmlns="http://www.w3.org/2000/svg" xmlns:xlink="http://www.w3.org/1999/xlink">
    <!-- Generator: Sketch 39.1 (31720) - http://www.bohemiancoding.com/sketch -->
    <title>Slice 1</title>
    <desc>Created with Sketch.</desc>
    <defs></defs>
    <g id="Page-1" stroke="none" stroke-width="1" fill="none" fill-rule="evenodd">
        <g id="Group" transform="translate(0.000000, 2.000000)">
            <path d="M0,13.9078788 L3.27272727,13.3406061 L3.27272727,14.7587879 C3.27272727,15.4569732 3.45817996,15.966059 3.82909091,16.2860606 C4.20000185,16.6060622 4.63999745,16.7660606 5.14909091,16.7660606 C5.71636647,16.7660606 6.1599984,16.5806079 6.48,16.209697 C6.8000016,15.838786 6.96,15.3624272 6.96,14.7806061 L6.96,4.24242424 L10.4072727,4.24242424 L10.4072727,14.8678788 C10.4072727,15.5660641 10.2800013,16.231512 10.0254545,16.8642424 C9.77090782,17.4969729 9.41091142,18.0460583 8.94545455,18.5115152 C8.47999767,18.976972 7.92727593,19.3478774 7.28727273,19.6242424 C6.64726953,19.9006074 5.94182204,20.0387879 5.17090909,20.0387879 C4.39999615,20.0387879 3.69818498,19.9187891 3.06545455,19.6787879 C2.43272411,19.4387867 1.89091135,19.0933356 1.44,18.6424242 C0.989088655,18.1915129 0.636364909,17.6533365 0.381818182,17.0278788 C0.127271455,16.4024211 0,15.7042463 0,14.9333333 L0,13.9078788 Z" id="Jekyll" fill="#FFFFFF"></path>
            <polygon id="+" fill="#0A93FF" points="16.9939394 4.25454545 16.9939394 0 19.7866667 0 19.7866667 4.25454545 23.910303 4.25454545 23.910303 6.96 19.7866667 6.96 19.7866667 11.2145455 16.9939394 11.2145455 16.9939394 6.96 12.8484848 6.96 12.8484848 4.25454545"></polygon>
        </g>
    </g>
</svg>