<?xml version="1.0" standalone="no"?>
<!DOCTYPE svg PUBLIC "-//W3C//DTD SVG 20010904//EN"
 "http://www.w3.org/TR/2001/REC-SVG-20010904/DTD/svg10.dtd">
<svg version="1.0" xmlns="http://www.w3.org/2000/svg"
 width="700.000000pt" height="700.000000pt" viewBox="0 0 700.000000 700.000000"
 preserveAspectRatio="xMidYMid meet">
<metadata>
Created by potrace 1.11, written by Peter Selinger 2001-2013
</metadata>
<g transform="translate(0.000000,700.000000) scale(0.100000,-0.100000)"
fill="#000000" stroke="none">
<path d="M0 3500 l0 -3500 3500 0 3500 0 0 3500 0 3500 -3500 0 -3500 0 0
-3500z m3150 198 c0 -1299 0 -1299 -50 -1462 -168 -541 -702 -858 -1299 -770
-461 67 -793 370 -895 817 -18 76 -36 289 -36 419 0 86 0 86 27 92 67 14 663
116 677 116 14 0 16 -21 16 -167 0 -93 5 -199 10 -237 21 -146 89 -238 218
-299 63 -30 74 -32 182 -32 106 0 120 2 178 29 113 52 193 172 212 317 5 44
10 547 10 1232 l0 1157 375 0 375 0 0 -1212z"/>
</g>
</svg>
