<?xml version="1.0" encoding="UTF-8" standalone="no"?>
<svg width="74px" height="24px" viewBox="0 0 74 24" version="1.1" xmlns="http://www.w3.org/2000/svg" xmlns:xlink="http://www.w3.org/1999/xlink">
    <!-- Generator: Sketch 39.1 (31720) - http://www.bohemiancoding.com/sketch -->
    <title>Slice 1</title>
    <desc>Created with Sketch.</desc>
    <defs></defs>
    <g id="Page-1" stroke="none" stroke-width="1" fill="none" fill-rule="evenodd">
        <g id="Group">
            <path d="M0,14.0928 L3.24,13.5312 L3.24,14.9352 C3.24,15.6264035 3.42359816,16.1303984 3.7908,16.4472 C4.15800184,16.7640016 4.59359748,16.9224 5.0976,16.9224 C5.65920281,16.9224 6.09839842,16.7388018 6.4152,16.3716 C6.73200158,16.0043982 6.8904,15.5328029 6.8904,14.9568 L6.8904,4.524 L10.3032,4.524 L10.3032,15.0432 C10.3032,15.7344035 10.1772013,16.3931969 9.9252,17.0196 C9.67319874,17.6460031 9.3168023,18.1895977 8.856,18.6504 C8.3951977,19.1112023 7.84800317,19.4783986 7.2144,19.752 C6.58079683,20.0256014 5.88240382,20.1624 5.1192,20.1624 C4.35599618,20.1624 3.66120313,20.0436012 3.0348,19.806 C2.40839687,19.5683988 1.87200223,19.2264022 1.4256,18.78 C0.979197768,18.3335978 0.63000126,17.8008031 0.378,17.1816 C0.12599874,16.5623969 0,15.8712038 0,15.108 L0,14.0928 Z M20.0664,13.1856 C20.0519999,12.983999 20.0052004,12.7752011 19.926,12.5592 C19.8467996,12.3431989 19.7208009,12.1488009 19.548,11.976 C19.3751991,11.8031991 19.1556013,11.6592006 18.8892,11.544 C18.6227987,11.4287994 18.2952019,11.3712 17.9064,11.3712 C17.5607983,11.3712 17.2584013,11.4287994 16.9992,11.544 C16.7399987,11.6592006 16.5204009,11.8031991 16.3404,11.976 C16.1603991,12.1488009 16.0236005,12.3431989 15.93,12.5592 C15.8363995,12.7752011 15.7824001,12.983999 15.768,13.1856 L20.0664,13.1856 Z M23.0472,16.7496 C22.9175994,17.2104023 22.7160014,17.6495979 22.4424,18.0672 C22.1687986,18.4848021 21.8232021,18.8483985 21.4056,19.158 C20.9879979,19.4676015 20.5020028,19.7123991 19.9476,19.8924 C19.3931972,20.0724009 18.7776034,20.1624 18.1008,20.1624 C17.3663963,20.1624 16.6608034,20.0328013 15.984,19.7736 C15.3071966,19.5143987 14.7096026,19.1400024 14.1912,18.6504 C13.6727974,18.1607976 13.2624015,17.5632035 12.96,16.8576 C12.6575985,16.1519965 12.5064,15.3456045 12.5064,14.4384 C12.5064,13.5743957 12.6539985,12.7932035 12.9492,12.0948 C13.2444015,11.3963965 13.6403975,10.8024024 14.1372,10.3128 C14.6340025,9.82319755 15.2063968,9.44520133 15.8544,9.1788 C16.5024032,8.91239867 17.1719965,8.7792 17.8632,8.7792 C19.5336084,8.7792 20.8475952,9.26159518 21.8052,10.2264 C22.7628048,11.1912048 23.2416,12.5447913 23.2416,14.2872 C23.2416,14.5176012 23.2344001,14.737199 23.22,14.946 C23.2055999,15.154801 23.1912001,15.2735999 23.1768,15.3024 L15.7032,15.3024 C15.7176001,15.6048015 15.7931993,15.8819987 15.93,16.134 C16.0668007,16.3860013 16.2467989,16.6055991 16.47,16.7928 C16.6932011,16.9800009 16.9487986,17.1239995 17.2368,17.2248 C17.5248014,17.3256005 17.8271984,17.376 18.144,17.376 C18.748803,17.376 19.2203983,17.2464013 19.5588,16.9872 C19.8972017,16.7279987 20.1455992,16.3896021 20.304,15.972 L23.0472,16.7496 Z M31.968,13.6176 L36.2448,19.8384 L32.2272,19.8384 L29.7,16.0584 L28.6416,17.2032 L28.6416,19.8384 L25.3584,19.8384 L25.3584,4.2 L28.6416,4.2 L28.6416,12.7104 L31.9032,9.1032 L36.1584,9.1032 L31.968,13.6176 Z M38.556,23.964 L40.9968,18.3912 L36.4824,9.1032 L40.1544,9.1032 L42.768,14.8488 L45.144,9.1032 L48.6216,9.1032 L42.012,23.964 L38.556,23.964 Z M50.2848,19.8384 L50.2848,4.2 L53.568,4.2 L53.568,19.8384 L50.2848,19.8384 Z M56.4624,19.8384 L56.4624,4.2 L59.7456,4.2 L59.7456,19.8384 L56.4624,19.8384 Z" id="Jekyll" fill="#FFFFFF"></path>
            <polygon id="+" fill="#0A93FF" points="66.504 4.212 66.504 0 69.2688 0 69.2688 4.212 73.3512 4.212 73.3512 6.8904 69.2688 6.8904 69.2688 11.1024 66.504 11.1024 66.504 6.8904 62.4 6.8904 62.4 4.212"></polygon>
        </g>
    </g>
</svg>