<?xml version="1.0" encoding="UTF-8" standalone="no"?>
<svg width="612px" height="200px" viewBox="0 0 612 200" version="1.1" xmlns="http://www.w3.org/2000/svg" xmlns:xlink="http://www.w3.org/1999/xlink">
    <!-- Generator: Sketch 40 (33762) - http://www.bohemiancoding.com/sketch -->
    <title>Slice 1</title>
    <desc>Created with Sketch.</desc>
    <defs></defs>
    <g id="Page-1" stroke="none" stroke-width="1" fill="none" fill-rule="evenodd">
        <g id="Group">
            <path d="M0,117.44 L27,112.76 L27,124.46 C27,130.220029 28.5299847,134.419987 31.59,137.06 C34.6500153,139.700013 38.279979,141.02 42.48,141.02 C47.1600234,141.02 50.8199868,139.490015 53.46,136.43 C56.1000132,133.369985 57.42,129.440024 57.42,124.64 L57.42,37.7 L85.86,37.7 L85.86,125.36 C85.86,131.120029 84.8100105,136.609974 82.71,141.83 C80.6099895,147.050026 77.6400192,151.579981 73.8,155.42 C69.9599808,159.260019 65.4000264,162.319989 60.12,164.6 C54.8399736,166.880011 49.0200318,168.02 42.66,168.02 C36.2999682,168.02 30.5100261,167.03001 25.29,165.05 C20.0699739,163.06999 15.6000186,160.220019 11.88,156.5 C8.1599814,152.779981 5.2500105,148.340026 3.15,143.18 C1.0499895,138.019974 0,132.260032 0,125.9 L0,117.44 Z M167.22,109.88 C167.099999,108.199992 166.710003,106.460009 166.05,104.66 C165.389997,102.859991 164.340007,101.240007 162.9,99.8 C161.459993,98.3599928 159.630011,97.1600048 157.41,96.2 C155.189989,95.2399952 152.460016,94.76 149.22,94.76 C146.339986,94.76 143.820011,95.2399952 141.66,96.2 C139.499989,97.1600048 137.670007,98.3599928 136.17,99.8 C134.669993,101.240007 133.530004,102.859991 132.75,104.66 C131.969996,106.460009 131.520001,108.199992 131.4,109.88 L167.22,109.88 Z M192.06,139.58 C190.979995,143.420019 189.300011,147.079983 187.02,150.56 C184.739989,154.040017 181.860017,157.069987 178.38,159.65 C174.899983,162.230013 170.850023,164.269993 166.23,165.77 C161.609977,167.270007 156.480028,168.02 150.84,168.02 C144.719969,168.02 138.840028,166.940011 133.2,164.78 C127.559972,162.619989 122.580022,159.50002 118.26,155.42 C113.939978,151.33998 110.520013,146.360029 108,140.48 C105.479987,134.599971 104.22,127.880038 104.22,120.32 C104.22,113.119964 105.449988,106.610029 107.91,100.79 C110.370012,94.9699709 113.669979,90.0200204 117.81,85.94 C121.950021,81.8599796 126.719973,78.7100111 132.12,76.49 C137.520027,74.2699889 143.099971,73.16 148.86,73.16 C162.78007,73.16 173.72996,77.1799598 181.71,85.22 C189.69004,93.2600402 193.68,104.539927 193.68,119.06 C193.68,120.98001 193.620001,122.809991 193.5,124.55 C193.379999,126.290009 193.260001,127.279999 193.14,127.52 L130.86,127.52 C130.980001,130.040013 131.609994,132.349989 132.75,134.45 C133.890006,136.55001 135.389991,138.379992 137.25,139.94 C139.110009,141.500008 141.239988,142.699996 143.64,143.54 C146.040012,144.380004 148.559987,144.8 151.2,144.8 C156.240025,144.8 160.169986,143.720011 162.99,141.56 C165.810014,139.399989 167.879993,136.580017 169.2,133.1 L192.06,139.58 Z M266.4,113.48 L302.04,165.32 L268.56,165.32 L247.5,133.82 L238.68,143.36 L238.68,165.32 L211.32,165.32 L211.32,35 L238.68,35 L238.68,105.92 L265.86,75.86 L301.32,75.86 L266.4,113.48 Z M321.3,199.7 L341.64,153.26 L304.02,75.86 L334.62,75.86 L356.4,123.74 L376.2,75.86 L405.18,75.86 L350.1,199.7 L321.3,199.7 Z M419.04,165.32 L419.04,35 L446.4,35 L446.4,165.32 L419.04,165.32 Z M470.52,165.32 L470.52,35 L497.88,35 L497.88,165.32 L470.52,165.32 Z" id="Jekyll" fill="#343C46"></path>
            <polygon id="+" fill="#0A93FF" points="554.2 35.1 554.2 0 577.24 0 577.24 35.1 611.26 35.1 611.26 57.42 577.24 57.42 577.24 92.52 554.2 92.52 554.2 57.42 520 57.42 520 35.1"></polygon>
        </g>
    </g>
</svg>