<?xml version="1.0" encoding="utf-8"?><!-- Generator: Adobe Illustrator 16.0.0, SVG Export Plug-In . SVG Version: 6.00 Build 0) --><!DOCTYPE svg PUBLIC "-//W3C//DTD SVG 1.1//EN" "http://www.w3.org/Graphics/SVG/1.1/DTD/svg11.dtd"><svg version="1.1" id="Layer_10" xmlns="http://www.w3.org/2000/svg" xmlns:xlink="http://www.w3.org/1999/xlink" x="0px" y="0px" width="1149.031px" height="231.404px" viewBox="5.749 89.122 1149.031 231.404" enable-background="new 5.749 89.122 1149.031 231.404" xml:space="preserve"><g><g><path fill="#573E7D" d="M5.752,89.561c0.944-0.173,1.718-0.441,2.489-0.439c31.816,0.123,63.634,0.076,95.446,0.52	c10.842,0.15,20.804,3.975,29.711,10.315c20.331,14.467,22.209,55.797-5.701,70.622c-1.42,0.754-2.834,1.516-4.762,2.546	c5.304,2.435,10.522,4.067,14.896,6.972c16.787,11.152,23.624,36.104,16.109,58.02c-6.558,19.121-22.128,27.017-40.235,31.217	c-5.947,1.38-12.175,2.096-18.283,2.139c-29.741,0.215-59.484,0.096-89.673,0.096C5.752,210.969,5.752,150.361,5.752,89.561z M37.561,244.895c22.12,0,43.602,0.504,65.044-0.182c13.479-0.431,23.219-14.879,22.408-28.932	c-0.799-13.852-9.329-25.632-22.514-26.248c-21.257-0.993-42.572-0.712-63.864-0.934c-0.318-0.002-0.641,0.466-1.075,0.803	C37.561,207.921,37.561,226.525,37.561,244.895z M37.635,164.886c19.771,0,38.838,0.72,57.82-0.239	c13.979-0.707,21.869-11.884,21.346-27.163c-0.463-13.528-8.451-21.664-22.832-22.044c-18.031-0.473-36.082-0.254-54.126-0.296	c-0.734-0.002-1.469,0.394-2.208,0.604C37.635,132.382,37.635,148.713,37.635,164.886z"/><path fill="#573E7D" d="M1023.55,139.882c8.832,0,17.381,0,26.521,0c0,5.23,0,10.467,0,14.214	c2.953-2.277,6.549-4.806,9.867-7.655c20.32-17.44,68.52-15.3,85.016,19.821c14.195,30.226,13.578,60.623-5.584,88.763	c-10.613,15.586-27.047,21.156-45.662,20.154c-16.174-0.873-30.414-5.957-41.619-20.931c0,23.133,0,44.521,0,66.277	c-9.92,0-19.043,0-28.537,0C1023.55,260.257,1023.55,200.241,1023.55,139.882z M1050.492,206.438	c1.195,6.619,1.852,13.397,3.699,19.83c4.123,14.356,16.678,24.972,29.682,25.889c17.395,1.227,29.887-5.2,36.174-20.622	c7.992-19.599,7.709-39.365-3.971-57.682c-13.775-21.607-46.787-19.801-58.461,2.834	C1052.81,186.005,1050.458,195.812,1050.492,206.438z"/><path fill="#573E7D" d="M1004.761,252.715c0,5.417,0.191,10.918-0.139,16.391c-0.08,1.351-1.775,3.633-2.873,3.727	c-8.271,0.689-16.678,1.895-24.844,1.043c-7.199-0.752-11.166-6.854-13.385-13.91c-17.09,13.913-36.688,16.922-57.535,14.339	c-17.434-2.159-31.875-16.474-33.117-32.368c-1.715-21.906,6.701-36.17,26.371-41.363c13.795-3.64,28.164-5.103,42.271-7.562	c3.422-0.596,6.885-1.082,10.227-1.996c6.42-1.752,11.051-5.306,11.521-12.614c0.486-7.554-2.443-13.44-9.543-16.299	c-12.117-4.875-24.453-4.754-36.383,0.828c-5.443,2.546-8.676,7.67-11.527,16.373c-9.043,0-18.191,0-27.955,0	c0.023-10.657,3.732-19.614,10.811-27.155c9.352-9.962,21.539-13.873,34.666-15.246c13.74-1.437,27.402-1.373,40.75,3.128	c17.951,6.053,26.547,17.896,26.521,36.856c-0.025,20.126-0.008,40.252-0.012,60.381	C990.582,251.552,990.58,251.552,1004.761,252.715z M961.556,207.299c-8.811,1.526-16.871,2.696-24.826,4.36	c-8.367,1.75-16.895,3.266-24.873,6.188c-7.822,2.866-10.48,10.176-10.221,18.026c0.246,7.505,5.373,11.71,11.98,14.019	c11.332,3.959,22.691,3.471,33.5-1.584c7.74-3.621,13.633-9.541,14.326-18.586C962.013,222.188,961.556,214.575,961.556,207.299z"	/><path fill="#573E7D" d="M242.249,136.079c43.841-0.515,69.55,31.621,66.838,75.378c-0.941,15.209-5.028,29.423-15.039,41.443	c-10.788,12.951-24.669,19.771-41.31,21.621c-13.896,1.549-27.399,0.639-40.275-5.205c-19.175-8.705-30.113-23.896-34.714-44.137	c-3.155-13.873-3.017-27.688,0.52-41.411C186.072,153.496,209.383,136.197,242.249,136.079z M204.086,205.907	c1.151,6.423,1.752,13.006,3.559,19.239c4.599,15.869,17.124,26.347,31.444,27.041c17.701,0.858,30.086-6.588,36.664-23.076	c6.423-16.096,6.433-32.569-0.609-48.471c-10.433-23.559-38.857-29.583-57.16-12.072	C207.547,178.552,204.853,191.819,204.086,205.907z"/><path fill="#573E7D" d="M394.354,136.081c39.542-0.062,66.447,26.584,66.947,66.217c0.212,16.735-2.514,32.693-12.338,46.712	c-14.062,20.07-34.374,27.092-57.759,26.027c-8.616-0.393-17.548-2.307-25.578-5.459c-18.854-7.401-30.096-21.973-35.092-41.477	c-4.385-17.127-3.897-34.146,1.681-50.886C340.77,151.537,364.238,136.126,394.354,136.081z M432.255,202.348	c-0.638-3.515-1.267-10.307-3.162-16.727c-4.817-16.328-17.548-26.241-33.588-26.938c-15.106-0.658-28.693,8.249-34.552,23.848	c-6.901,18.373-6.393,36.674,4.005,53.793c10.832,17.834,35.387,21.742,51.491,8.436	C428.736,234.607,431.742,220.589,432.255,202.348z"/><path fill="#573E7D" d="M676.736,176.492c-9.023,0-17.811,0.074-26.592-0.094c-1.082-0.02-2.766-1.104-3.115-2.075	c-4.938-13.716-16.557-15.347-28.572-15.416c-4.982-0.03-10.283,1.183-14.896,3.118c-9.859,4.136-10.955,15.291-1.715,20.634	c6.41,3.707,13.936,5.698,21.166,7.734c10.23,2.881,20.791,4.616,30.955,7.687c25.988,7.855,36.145,33.911,21.594,55.391	c-6.98,10.301-17.418,15.877-29.387,18.766c-17.689,4.269-35.301,4.582-52.588-1.661c-18.497-6.683-28.268-20.095-29.71-40.396	c9.501,0,18.785,0,28.224,0c8.025,20.947,30.701,29.105,51.945,18.401c4.914-2.478,8.195-6.001,8.523-11.793	c0.35-6.19-2.041-11.513-7.596-13.585c-9.904-3.694-20.248-6.227-30.416-9.208c-8.422-2.47-17.111-4.254-25.238-7.47	c-15.678-6.209-22.49-16.891-22.394-33.176c0.084-14.204,8.387-26.374,23.109-31.712c20.262-7.347,40.941-8.261,61.293-0.288	c13.76,5.39,21.961,16.02,25.371,30.332C677.005,173.002,676.736,174.466,676.736,176.492z"/><path fill="#573E7D" d="M523.501,139.515c9.41,0,17.573,0,26.123,0c0,7.172,0,13.864,0,21.361c-8.323,0-16.81,0-25.598,0	c-0.181,2.558-0.414,4.348-0.417,6.137c-0.025,21.561-0.035,43.121,0.01,64.678c0.005,2.869,0.227,5.746,0.51,8.604	c0.562,5.701,3.727,9.087,9.467,9.399c5.26,0.289,10.549,0.062,16.119,0.062c0,7.303,0,14.206,0,21.359	c-11.931,2.953-24.057,2.797-35.796,0.182c-13.669-3.044-19.222-12.449-19.342-30.251c-0.165-24.228-0.049-48.46-0.054-72.69	c0-2.211,0-4.424,0-7.123c-7.429,0-14.332,0-21.696,0c0-7.313,0-14.14,0-21.605c7.012,0,13.905,0,21.403,0	c0-13.432,0-26.258,0-39.562c9.907,0,19.203,0,29.274,0C523.501,113.007,523.501,125.853,523.501,139.515z"/><path fill="#573E7D" d="M767.81,271.938c-11.24,0-21.881,0.35-32.486-0.1c-10.279-0.436-18.195-7.253-20.441-17.427	c-1.271-5.763-1.967-11.761-2.023-17.662c-0.227-22.795-0.094-45.596-0.094-68.394c0-2.211,0-4.424,0-7.209	c-7.426,0-14.32,0-21.625,0c0-7.229,0-13.886,0-21.319c6.943,0,13.803,0,21.303,0c0-13.565,0-26.386,0-39.723	c9.959,0,19.281,0,29.33,0c0,12.7,0,25.521,0,39.079c8.973,0,17.268,0,25.998,0c0,7.419,0,14.115,0,21.474	c-8.031,0-16.336,0-24.947,0c-0.297,1.935-0.686,3.273-0.686,4.614c-0.021,23.209-0.096,46.418,0.055,69.625	c0.08,12.274,3.293,15.228,15.459,15.141c3.25-0.021,6.504-0.002,10.158-0.002C767.81,257.057,767.81,264.111,767.81,271.938z"/><path fill="#573E7D" d="M816.597,139.956c0,7.813,0,15.143,0,22.475c11.264-19.123,26.852-29.088,49.873-25.691	c0,9.223,0,18.33,0,27.727c-10.936-1.644-21.484-1.937-30.826,4.776c-12.254,8.809-16.533,21.681-16.838,35.87	c-0.471,21.935-0.123,43.89-0.123,66.316c-9.549,0-18.873,0-28.727,0c0-43.578,0-87.318,0-131.475	C798.658,139.956,807.177,139.956,816.597,139.956z"/></g></g></svg>