<?xml version="1.0" encoding="UTF-8" standalone="no"?>
<!-- Created with Inkscape (http://www.inkscape.org/) -->
<svg
   xmlns:svg="http://www.w3.org/2000/svg"
   xmlns="http://www.w3.org/2000/svg"
   version="1.0"
   width="599.99988"
   height="508.56302"
   id="svg2119">
  <defs
     id="defs2121" />
  <g
     transform="translate(-226.1321,-293.592)"
     id="layer1">
    <g
       transform="matrix(1.697553,0,0,1.697553,-237.7672,38.25535)"
       style="fill:black;fill-opacity:1"
       id="g2086">
      <g
         style="fill:black;fill-opacity:1"
         id="g1987">
			<path
   d="M 569.38574,394.10938 C 558.61133,396.99463 547.11426,397.92236 536.65039,401.49072 C 554.37305,386.29492 553.36133,362.78223 565.18555,344.88477 C 568.95215,339.81738 572.06543,334.50586 576.45605,329.69727 C 569.26367,344.125 572.38281,362.84375 564.12012,376.84473 C 560.93945,382.40625 556.39063,387.80176 551.36035,392.16992 C 553.00391,392.1084 554.44238,390.68555 555.8877,389.73535 C 569.30859,376.34277 586.8418,372.59766 601.35938,361.7168 C 607.1748,357.08301 612.50098,351.01074 615.05762,344.44336 C 612.31055,366.66309 590.20508,387.48926 569.38574,394.10938 L 569.38574,394.10938 z "
   style="fill:black;fill-opacity:1"
   id="path1989" />

			<path
   d="M 617.73535,304.14551 C 611.16895,313.48926 603.22559,322.1875 597.15918,331.68359 C 597.83594,324.16504 598.72656,314.91992 595.79785,307.79785 C 590.72266,292.46094 586.26367,276.88867 584.8252,260.05664 L 585.02344,253.62012 C 588.84277,270.80957 605.72852,282.62598 604.66309,301.90723 C 605.0498,306.58008 603.60449,310.55273 602.72949,314.66211 L 603.01953,314.96582 L 603.78027,314.11328 C 606.28418,304.65527 607.54785,294.70996 611.44141,285.88574 C 616.97461,273.1875 623.88379,260.37207 621.06836,245.04004 C 629.48438,263.11621 626.93457,287.26758 617.73535,304.14551 L 617.73535,304.14551 z "
   style="fill:black;fill-opacity:1"
   id="path1991" />

			<path
   d="M 607.37109,206.75781 C 618.44336,221.76318 620.87012,245.67578 612.80566,262.8877 C 609.7998,270.18164 607.67676,277.9541 606.49609,286.02734 C 605.93262,284.63477 605.80371,282.7627 605.30078,281.21094 C 600.89648,264.36328 584.96289,252.35645 578.41016,236.47217 C 576.33203,231.27783 574.56055,225.91064 573.57813,220.27197 C 580.58008,233.22217 597.83594,239.91113 602.53906,254.18262 C 604.46582,257.79199 604.35742,262.30176 605.55273,266.18262 C 605.80371,266.18262 606.05469,265.99609 606.05469,265.74121 C 603.98438,251.04004 604.61621,235.65381 606.61133,221.13525 C 606.49609,213.271 605.72852,205.64258 601.35938,199.55518 C 604.16113,201.1875 605.42285,204.32275 607.37109,206.75781 L 607.37109,206.75781 z "
   style="fill:black;fill-opacity:1"
   id="path1993" />

			<path
   d="M 599.56445,203.87744 C 602.47266,217.02637 598.22461,229.83203 600.89648,243.10742 L 600.79688,243.22168 C 593.64355,229.15527 578.45703,222.5166 568.00781,211.2583 C 561.95215,204.57764 559.31934,196.43555 557.80469,187.81445 C 563.79199,202.24902 579.94824,205.42969 589.22363,217.59326 C 592.32715,220.39746 593.33984,224.28223 595.34082,227.4624 L 595.66797,227.14648 C 590.33398,215.75977 588.54687,202.94531 584.8252,190.80127 C 582.96191,185.53906 579.26367,180.36865 574.30176,177.05078 C 586.47754,179.53906 597.03027,192.25049 599.56445,203.87744 L 599.56445,203.87744 z "
   style="fill:black;fill-opacity:1"
   id="path1995" />

			<path
   d="M 567.01172,173.72168 C 576.18164,181.92871 580.3291,192.55518 583.00684,203.56543 L 584.52148,207.06201 C 571.21191,197.48975 559.12109,184.62207 550.62207,171.03223 L 540.24219,160.53125 C 549.36719,164.40039 559.20508,166.70996 567.01172,173.72168 L 567.01172,173.72168 z "
   style="fill:black;fill-opacity:1"
   id="path1997" />

			<path
   d="M 356.80566,162.27393 C 347.60547,170.33936 341.22461,180.53955 334.39941,190.05127 C 328.28125,197.62646 320.45508,202.62158 313.51953,209.13574 C 317.26367,201.37402 317.40039,192.10254 322.71094,184.97266 C 330.26758,171.78906 344.28027,167.15088 356.80566,162.27393 L 356.80566,162.27393 z "
   style="fill:black;fill-opacity:1"
   id="path1999" />

			<path
   d="M 306.49219,190.35986 C 310.9668,184.79736 316.63965,180.93164 323.02344,179.29932 C 310.62793,187.81445 311.43457,203.07422 307.50488,215.75977 C 306.25195,220.45068 304.07617,224.77246 302.99219,229.58105 L 303.30762,229.83203 C 305.37012,224.396 308.99512,219.25977 313.51953,214.82422 C 322.32324,206.69727 335.34668,201.63232 339.66113,189.61035 C 339.46387,206.31641 325.52734,219.4502 312.19238,228.83936 C 306.69336,233.66357 301.39063,239.16162 298.3623,245.36328 C 298.06543,241.14844 298.98535,236.9165 298.68555,232.40137 C 297.23535,217.81787 296.18164,201.17236 306.49219,190.35986 L 306.49219,190.35986 z "
   style="fill:black;fill-opacity:1"
   id="path2001" />

			<path
   d="M 281.41211,240.22754 C 281.03906,225.44922 287.17285,213.38574 295.81641,202.37451 C 296.06738,202.24902 296.24609,201.99805 296.56934,202.05859 C 287.05469,216.51709 294.92578,234.729 294.49219,251.16895 L 293.2373,268.00098 C 293.42383,268.12305 293.42383,268.62891 293.86523,268.43457 C 294.42773,266.55859 294.5498,264.55371 294.92578,262.62402 C 297.16699,249.04688 308.95801,239.41309 319.25684,230.03027 C 321.45605,227.57617 323.40039,225.08447 324.53027,222.20459 C 323.68945,228.96484 321.57031,235.7832 318.76563,242.03516 C 310.75,257.66699 295.94238,270.49316 293.2373,288.38965 C 291.9248,271.23926 280.24805,258.41699 281.41211,240.22754 L 281.41211,240.22754 z "
   style="fill:black;fill-opacity:1"
   id="path2003" />

			<path
   d="M 274.21387,261.24316 C 275.2793,256.62109 276.09375,251.83789 278.10547,247.59668 C 274.29395,267.13379 287.43457,281.21094 291.74512,298.14551 C 293.54883,304.47949 293.99023,311.28223 296.56934,317.22559 C 296.80957,317.35547 297.01855,317.10449 297.16699,316.91406 C 290.74902,298.9248 300.01367,282.20801 309.32324,268.12305 C 311.58691,264.30664 312.8916,260.05664 314.01758,255.66992 C 315.00684,263.81152 312.94824,273.1875 311.76563,281.64063 C 309.50195,292.39648 306.12305,302.59668 303.18164,313.0332 C 301.24609,319.55469 301.75488,326.91211 302.74902,333.74512 L 301.81641,333 C 294.99121,320.41406 281.47656,310.59766 277.46289,296.84766 C 274.16016,285.88574 271.96484,273.1875 274.21387,261.24316 L 274.21387,261.24316 z "
   style="fill:black;fill-opacity:1"
   id="path2005" />

			<path
   d="M 273.59766,299.40137 C 275.10059,320.10938 297.36914,331.05176 307.69141,348.19531 C 310.13379,351.70313 312.25293,355.58398 315.5166,358.52051 C 315.00684,356.31445 312.94824,354.45801 312.19238,352.19824 C 308.58105,345.00781 307.26465,336.43945 308.13281,327.74902 C 309.13281,317.17188 313.56934,307.35645 311.87598,296.23145 C 320.94629,315.78809 318.19141,340.19824 323.2627,361.38965 C 324.59082,366.02441 327.27344,370.16309 329.03125,374.59277 C 310.39551,361.90039 284.98438,349.82422 276.7168,326.5625 C 273.23242,318.54199 272.84375,308.6123 273.59766,299.40137 L 273.59766,299.40137 z "
   style="fill:black;fill-opacity:1"
   id="path2007" />

			<path
   d="M 284.72949,346.95508 C 295.12012,370.46094 321.14355,372.4082 338.5918,386.72168 C 341.80273,389.56738 345.16699,391.9873 348.79199,393.67578 L 348.97852,393.48633 C 344.97266,389.86426 340.33887,385.73926 337.53418,381.04492 C 327.32227,366.8457 330.91406,346.95508 323.2627,331.68359 C 330.21484,340 336.53711,348.64453 340.73438,358.0791 C 346.97754,373.48047 349.36328,390.87598 363.80957,402.51807 C 348.17578,397.36572 329.86035,398.80518 316.06152,389.17871 C 300.99512,379.91895 287.54883,364.21289 284.72949,346.95508 L 284.72949,346.95508 z "
   style="fill:black;fill-opacity:1"
   id="path2009" />

			<path
   d="M 311.43457,390.80664 C 328.09473,409.75439 355.31738,403.43213 377.50977,408.39111 C 380.64453,408.81885 383.51367,410.07471 386.83594,409.56494 C 384.19043,407.89111 380.51953,408.07275 377.63184,406.55127 C 360.23633,400.43994 357.68457,381.60742 348.24121,368.9082 C 360.30566,376.91992 370.44824,387.72559 381.57813,398.1958 C 389.57813,405.20361 399.20801,408.43799 409.35449,410.50049 C 406.91602,411.39111 403.71973,411.14697 401.10254,411.83252 C 382.87402,416.31494 362.62207,423.64111 343.29102,417.08252 C 330.72363,413.12549 317.75781,403.18799 311.43457,390.80664 L 311.43457,390.80664 z "
   style="fill:black;fill-opacity:1"
   id="path2011" />

			<path
   d="M 537.55664,434.97314 C 518.7832,441.979 499.19043,434.65283 484.52734,423.53369 C 478.59082,419.76025 473.35742,414.32666 465.67871,414.80713 C 462.89355,414.75439 460.20801,414.89111 457.84082,415.57471 C 472.08594,422.20361 485.31836,431.34229 497.41699,443.02979 C 495.37793,445.35791 492.7373,447.53564 490.25,449.54346 C 478.59082,436.98096 465.67871,424.88916 451.22168,417.82666 C 448.39063,418.19385 445.69727,419.89697 443.14453,421.26807 C 431.375,428.70947 419.7373,438.28174 410.9873,450.00049 L 403.46875,443.7915 C 415.46875,431.65283 428.74219,422.20361 443.2627,415.45361 C 428.99414,410.93408 419.68066,422.88721 408.84961,428.96729 C 396.22852,437.77979 378.07715,441.91846 362.82422,435.83838 C 354.62109,432.72705 346.67383,428.14502 340.73438,420.69775 C 352.73828,428.96729 370.61621,429.83447 384.26758,424.46338 C 402.58594,416.51807 421.62109,406.4458 443.7041,411.26221 C 447.15039,411.32275 450.49902,414.75439 453.75488,411.83252 C 470.16797,407.5708 488.75,410.50049 502.88086,418.00244 L 517.44531,423.84033 C 530.98242,428.84619 548.48438,427.46143 560.08789,419.21338 C 554.12207,426.63916 545.97266,431.95947 537.55664,434.97314 L 537.55664,434.97314 z "
   style="fill:black;fill-opacity:1"
   id="path2013" />

			<path
   d="M 557.6748,415.57471 C 536.59668,423.53369 515.3916,413.76416 495.19531,410.50049 L 491.30664,410.00635 L 491.30664,409.8833 C 500.96387,407.69189 510.33789,404.81689 518.02441,397.87744 C 529.3457,386.99512 539.41992,375.79395 551.99219,367.21875 C 542.66895,379.17285 541.68066,396.18799 526.2793,403.87354 C 522.46777,406.36768 517.65723,406.80908 513.72363,408.69775 C 519.33301,408.81885 524.46875,406.80908 530.02344,406.24658 C 550.67578,403.00439 574.30176,406.33057 588.79004,388.7373 C 583.41113,400.99658 569.94043,411.26221 557.6748,415.57471 L 557.6748,415.57471 z "
   style="fill:black;fill-opacity:1"
   id="path2015" />

			<path
   d="M 595.97266,356.26855 C 587.64844,361.7168 579.21094,366.76953 571.21191,372.96387 L 571.21191,372.20313 C 583.46387,351.84082 577.47461,323.86816 585.02344,301.45898 L 587.83887,293.95215 C 586.26367,307.91211 592.32715,319.7373 591.90137,333.74512 C 591.47559,342.20703 588.71387,349.70996 584.27051,356.4668 L 585.02344,356.4668 C 591.02637,348.58301 595.71387,340.19824 602.72949,332.68848 C 613.61914,322.1875 624.69043,311.41992 626.12012,296.84766 C 629.81836,321.1748 616.16797,342.49609 595.97266,356.26855 L 595.97266,356.26855 z "
   style="fill:black;fill-opacity:1"
   id="path2017" />

		</g>
      <g
         style="fill:black;fill-opacity:1"
         id="g2019">
			<polygon
   points="448.11182,303.25244 451.88867,303.25244 451.88867,398.07471 448.11182,398.07471 448.11182,303.25244 "
   style="fill:black;fill-opacity:1;fill-rule:evenodd"
   id="polygon2021" />

			<polygon
   points="427.60938,293.93945 430.27734,296.61084 363.17578,363.60986 360.50781,360.93652 427.60938,293.93945 "
   style="fill:black;fill-opacity:1;fill-rule:evenodd"
   id="polygon2023" />

			<polygon
   points="421.19531,274.18604 421.18945,277.9624 326.36719,277.84912 326.37109,274.07227 421.19531,274.18604 "
   style="fill:black;fill-opacity:1;fill-rule:evenodd"
   id="polygon2025" />

			<polygon
   points="430.19775,255.89795 427.52588,258.56738 360.48535,191.50781 363.15674,188.83838 430.19775,255.89795 "
   style="fill:black;fill-opacity:1;fill-rule:evenodd"
   id="polygon2027" />

			<polygon
   points="451.84717,248.10986 448.07031,248.10693 448.15723,153.28271 451.93408,153.28662 451.84717,248.10986 "
   style="fill:black;fill-opacity:1;fill-rule:evenodd"
   id="polygon2029" />

			<polygon
   points="470.82471,257.15527 468.15674,254.48145 535.29688,187.52148 537.96484,190.19482 470.82471,257.15527 "
   style="fill:black;fill-opacity:1;fill-rule:evenodd"
   id="polygon2031" />

			<polygon
   points="478.14746,278.25928 478.14355,274.48291 572.96484,274.36377 572.97168,278.14014 478.14746,278.25928 "
   style="fill:black;fill-opacity:1;fill-rule:evenodd"
   id="polygon2033" />

			<polygon
   points="467.19922,297.55908 469.86719,294.88525 536.97363,361.87891 534.30566,364.55225 467.19922,297.55908 "
   style="fill:black;fill-opacity:1;fill-rule:evenodd"
   id="polygon2035" />

			<path
   d="M 485.36328,181.18359 C 537.58984,200.70557 564.13184,258.93359 544.60938,311.15723 C 525.08691,363.38086 466.85889,389.92334 414.63721,370.40088 C 362.41162,350.87988 335.87305,292.65283 355.3916,240.42822 C 374.91455,188.20361 433.1416,161.66309 485.36328,181.18359 L 485.36328,181.18359 z M 483.83496,185.27832 C 533.79785,203.95508 559.19043,259.66309 540.51563,309.62646 C 521.83984,359.59131 466.12842,384.98291 416.16602,366.30615 C 366.20313,347.63135 340.81152,291.92236 359.48633,241.9585 C 378.16309,191.99512 433.87207,166.60254 483.83496,185.27832 L 483.83496,185.27832 z "
   style="fill:black;fill-opacity:1;fill-rule:evenodd"
   id="path2037" />

			<path
   d="M 477.26172,202.86133 C 517.52246,217.91016 537.97949,262.79639 522.93359,303.05518 C 507.88379,343.31348 462.99512,363.77295 422.73926,348.7251 C 382.48291,333.67725 362.02148,288.78906 377.06934,248.53076 C 392.11719,208.27295 437.00537,187.81299 477.26172,202.86133 L 477.26172,202.86133 z M 475.72559,206.97949 C 513.70801,221.17773 533.01465,263.53174 518.81641,301.51709 C 504.61816,339.50293 462.26123,358.80811 424.2793,344.60791 C 386.29346,330.40967 366.98633,288.05518 381.18652,250.07031 C 395.38672,212.08447 437.73926,192.7793 475.72559,206.97949 L 475.72559,206.97949 z "
   style="fill:black;fill-opacity:1;fill-rule:evenodd"
   id="path2039" />

			<path
   d="M 469.40186,223.88623 C 498.05664,234.59668 512.61816,266.54346 501.90918,295.1958 C 491.19531,323.84766 459.24902,338.41113 430.59863,327.69971 C 401.94482,316.98877 387.3833,285.04248 398.09473,256.39063 C 408.80566,227.73877 440.75195,213.17627 469.40186,223.88623 L 469.40186,223.88623 z M 467.99414,227.65479 C 494.56738,237.58789 508.07324,267.21533 498.13965,293.78809 C 488.20508,320.36035 458.5791,333.86426 432.00635,323.93115 C 405.43408,313.99951 391.93018,284.37109 401.86182,257.79834 C 411.79492,231.22705 441.42139,217.72217 467.99414,227.65479 L 467.99414,227.65479 z "
   style="fill:black;fill-opacity:1;fill-rule:evenodd"
   id="path2041" />

			<path
   d="M 460.56201,247.53662 C 476.16016,253.36719 484.08789,270.75732 478.25684,286.35596 C 472.42578,301.95215 455.03711,309.88037 439.43848,304.04883 C 423.84033,298.21924 415.91406,280.8291 421.74365,265.23047 C 427.5752,249.6333 444.96729,241.70605 460.56201,247.53662 L 460.56201,247.53662 z M 459.03711,251.61328 C 472.3877,256.60254 479.16895,271.48486 474.18164,284.83252 C 469.18994,298.17969 454.31055,304.9624 440.96387,299.97314 C 427.61475,294.98389 420.83203,280.10254 425.81934,266.75439 C 430.81055,253.40674 445.69385,246.62354 459.03711,251.61328 L 459.03711,251.61328 z "
   style="fill:black;fill-opacity:1;fill-rule:evenodd"
   id="path2043" />

			<path
   d="M 508.91309,166.20703 C 569.99805,199.82275 593.18359,276.2002 560.66211,336.68945 C 528.14453,397.18115 452.17236,418.99365 391.08789,385.37842 C 330.00391,351.76367 306.81787,275.38525 339.33936,214.89502 C 371.85889,154.40381 447.82813,132.5918 508.91309,166.20703 L 508.91309,166.20703 z M 506.77539,170.18701 C 565.64258,202.58154 587.98438,276.18408 556.64355,334.47949 C 525.30664,392.77295 452.09277,413.79443 393.22803,381.39941 C 334.35938,349.00293 312.01758,275.40039 343.35791,217.10596 C 374.69482,158.81152 447.90771,137.7915 506.77539,170.18701 L 506.77539,170.18701 z "
   style="fill:black;fill-opacity:1;fill-rule:evenodd"
   id="path2045" />

			<path
   d="M 523.73633,334.3999 C 523.80762,335.04883 523.58496,336.646 523.8877,337.0127 C 524.20117,337.51025 525.37109,337.4043 525.87793,337.22852 C 527.2627,336.70801 528.64063,334.87842 529.28027,333.50684 C 529.73047,332.81055 530.0332,331.99512 529.93457,331.08301 L 528.96582,328.14844 C 528.72363,327.11914 528.39844,325.31006 527.30078,324.88281 C 527.40332,324.61035 527.75098,324.18457 527.70996,323.79443 C 527.45605,322.63477 525.51855,322.93945 524.82617,323.79102 C 524.47754,324.2168 524.57617,325.12646 524.50098,325.6582 C 524.48145,326.7124 524.18652,328.84082 523.7666,329.79834 C 523.34668,330.75391 522.16992,332.04248 522.1543,333.09619 C 522.2373,333.87549 523.07422,334.32617 523.73633,334.3999 L 523.73633,334.3999 z M 459.25635,326.2583 L 459.60059,327.01514 C 459.61572,327.14551 459.771,327.39355 459.90332,327.38232 C 460.78125,328.22412 462.01123,326.27344 460.54297,326.01221 C 460.41064,326.02344 460.13818,325.91553 460.021,326.05762 C 459.76367,326.08203 459.50244,326.10498 459.25635,326.2583 L 459.25635,326.2583 z M 460.229,324.33203 C 459.63477,324.90918 459.41895,325.32373 460.38428,325.76221 L 460.229,324.33203 L 460.229,324.33203 z M 444.56982,312.8623 C 443.61621,313.73438 443.68848,313.20459 443.2002,313.51123 C 442.83691,313.8042 443.13965,314.17139 442.80664,314.72754 C 442.7041,315 442.32617,315.16504 442.35645,315.42578 C 442.26904,315.82715 442.68555,316.05225 443.09033,316.14697 C 443.62402,316.22998 445.18311,316.0918 445.6709,315.78564 C 446.15186,315.34814 445.9624,314.83936 446.18213,314.4248 C 446.29932,314.2832 446.53027,313.99951 446.64746,313.85742 C 446.7041,313.19531 445.30762,312.40039 444.56982,312.8623 L 444.56982,312.8623 z M 482.16992,308.83203 L 482.30957,310.13184 L 482.1582,311.19727 C 483.57324,310.93799 484.44434,310.4668 485.7002,309.95947 C 486.0752,309.79492 486.82422,309.46387 487.11523,309.70068 C 487.53223,309.92773 487.3125,310.33984 487.20996,310.6123 C 487.00586,311.15527 486.19629,312.14893 485.84766,312.57471 C 484.79199,313.71924 483.2334,313.85937 481.91602,315.02881 C 481.20801,315.74951 481.01953,316.42285 480.30762,317.14404 C 479.60059,317.86279 479.09277,318.04102 478.72949,318.33594 C 478.38184,318.76172 478.67285,318.99805 477.93555,319.45801 L 478.35547,318.50244 C 477.9541,318.40576 477.43164,318.45312 477.12891,318.08447 C 476.95898,317.70801 476.91699,317.31592 477.00391,316.91504 C 477.18262,316.11084 477.34473,313.99365 477.81055,313.42578 C 477.92773,313.28418 478.93848,312.93018 479.3125,312.76562 L 479.13867,313.56982 C 479.52832,313.53564 480.17578,313.47705 480.4209,313.32373 C 481.05762,313.13477 481.69629,311.7627 482.0293,311.2085 L 480.2666,311.8916 C 480.57324,311.07617 481.44336,309.42236 482.16992,308.83203 L 482.16992,308.83203 z M 447.31348,312.74658 C 447.04883,313.9541 447.78662,313.49219 448.23291,313.97852 C 448.52051,314.21484 448.5625,314.60498 448.604,314.99658 L 447.57861,315.21973 L 447.12793,315.91602 L 446.54883,316.62549 L 448.30859,317.125 C 447.42725,317.46582 446.89355,317.38232 446.32959,318.22266 L 448.53564,318.02393 C 449.97754,318.02588 451.06006,318.32275 452.41846,317.54297 L 452.13086,317.30664 L 452.52441,316.08838 L 451.54443,315.52051 L 451.19971,314.76367 L 449.5498,312.80908 L 449.00146,312.59522 C 449.4668,312.02783 450.40527,311.02295 449.06543,310.75049 L 448.40332,310.67871 L 448.98242,309.96924 C 448.1875,309.91064 447.52539,309.83838 446.93115,310.41748 C 446.23486,311.26709 446.21582,312.31934 447.31348,312.74658 L 447.31348,312.74658 z M 446.54541,295.86914 L 446.51514,296.79053 L 446.2124,296.42383 L 446.25,297.99609 C 446.48096,298.89648 447.49121,298.54297 447.72217,298.25879 C 447.96826,298.10596 448.04004,297.57227 448.01367,297.31299 C 447.9873,297.05371 447.82813,296.8042 447.68457,296.68652 C 447.4082,296.57861 447.2793,296.59033 447.01855,296.61279 L 446.93506,295.8335 L 446.54541,295.86914 L 446.54541,295.86914 z M 339.51172,304.15869 C 339.46045,306.13379 339.98047,306.08643 340.42139,307.75537 C 340.65039,308.6543 340.28906,308.94922 341.00439,310.72412 C 341.34863,311.48291 341.56055,312.25098 342.38184,312.5708 C 342.14551,310.35889 341.87451,309.07031 341.13281,307.03467 C 340.60303,305.76855 340.19824,305.67432 339.77051,304.13379 L 339.51172,304.15869 L 339.51172,304.15869 z M 518.94531,282.5415 C 518.3252,282.85938 518.10547,283.27344 518.17676,283.92236 C 518.11621,284.58643 518.69141,285.05957 519.32715,284.87061 C 520.20898,284.52979 520.36035,282.28223 518.94531,282.5415 L 518.94531,282.5415 z M 396.16846,282.25732 C 395.84863,282.94434 395.78809,283.60645 396.49365,284.06836 C 396.42383,283.41943 396.61279,282.74365 396.16846,282.25732 L 396.16846,282.25732 z M 434.52881,282.88965 L 434.96191,283.24512 C 435.91553,282.37109 436.12012,281.82617 436.81641,280.97656 C 437.39502,280.26709 437.78516,280.23291 438.14648,279.93799 C 438.37695,279.65381 438.34863,279.39307 438.43555,278.9917 C 438.64014,278.44678 439.0166,278.28223 438.91992,277.37207 C 438.96582,276.57959 438.44922,275.44385 437.5542,275.65527 L 437.35352,275.0166 C 436.96387,275.05127 436.32813,275.23975 435.9668,275.53418 C 435.60547,275.83008 435.79053,276.33887 435.31396,276.77588 C 434.73486,277.48389 433.72461,277.8374 433.47852,277.99072 C 433.10205,278.15723 433.27441,278.53564 432.66504,278.98437 C 431.81348,279.58594 431.25146,279.2417 430.74609,279.41943 C 430.11035,279.60693 429.16846,280.61133 428.69141,281.04834 C 427.99512,281.89795 427.79297,282.44287 427.50146,283.38916 C 427.39941,283.65967 427.18164,284.07373 427.33887,284.32373 C 427.49561,284.57178 427.88574,284.53564 428.1333,284.38232 C 428.63867,284.20654 429.75098,283.58203 430.15625,283.67676 C 430.54395,283.64062 430.70264,283.89014 430.97705,283.99658 C 431.38037,284.09082 431.63965,284.06836 431.91357,284.17432 C 432.18603,284.28223 432.48877,284.64893 432.77637,284.88574 C 433.46729,285.2168 434.16357,284.36719 434.36768,283.82422 C 434.46973,283.55176 434.57031,283.2793 434.52881,282.88965 L 434.52881,282.88965 z M 435.28369,272.83691 L 435.29883,272.96729 L 435.15283,272.84912 L 435.28369,272.83691 L 435.28369,272.83691 z M 436.43408,273.78467 C 436.77832,274.54248 438.0459,275.34766 438.76514,275.94092 C 439.01074,275.7876 439.12646,275.64551 439.22852,275.37402 C 439.54834,274.68799 439.4082,273.38623 438.71582,273.0542 C 438.2998,272.8291 437.79248,273.00635 437.41797,273.1709 C 437.40283,273.04102 437.23242,272.6626 437.08887,272.54346 C 436.06689,271.58447 434.78809,274.32666 436.43408,273.78467 L 436.43408,273.78467 z M 431.00195,272.03955 C 431.87793,272.88037 431.89307,273.00977 433.0625,272.90479 C 432.88428,273.70898 431.84375,274.98535 430.99219,274.40527 C 430.43213,274.06104 430.37549,273.54053 430.10303,273.43359 C 429.68506,273.2085 429.65283,274.13086 429.42188,274.41406 C 428.86914,275.3833 427.94629,275.33545 427.85547,276.91992 L 428.34717,276.61133 C 428.84668,277.61816 429.77393,276.48486 430.39648,276.16602 C 430.28076,276.30811 430.04834,276.59277 429.94775,276.86328 C 429.85693,277.26611 430.29053,277.62207 430.66699,277.45557 C 431.0415,277.29053 431.4917,276.59277 431.85156,276.29736 C 432.21484,276.00342 432.34326,275.9917 432.71973,275.8252 C 433.08105,275.53125 433.55811,275.09424 433.92139,274.79883 C 435.00732,273.91357 435.06201,274.43359 435.44238,273.08545 C 435.41211,272.82568 435.5293,272.68359 435.50098,272.42334 C 434.98438,271.28711 433.12305,272.24268 432.97705,272.12549 L 432.16895,271.93408 C 431.89648,271.82715 431.38965,272.00439 431.00195,272.03955 L 431.00195,272.03955 z M 437.00342,271.76416 L 436.35449,271.82178 L 436.52686,272.2002 C 437.29297,272.00049 437.81152,271.95313 437.84375,271.03076 C 437.19434,271.08936 437.06396,271.10059 437.00342,271.76416 L 437.00342,271.76416 z M 396.09473,274.25098 L 395.49268,277.19629 L 395.76172,278.48486 L 396.30273,281.06348 C 396.63574,280.50928 397.2334,278.74756 397.29395,278.08545 L 397.44189,277.02002 C 397.4873,276.22852 397.58936,275.95703 397.24512,275.19922 L 396.40479,275.93115 L 396.35352,274.22852 L 396.09473,274.25098 L 396.09473,274.25098 z M 438.34863,270.854 C 438.26563,270.07324 438.40918,270.19238 439.07129,270.26367 L 439.06201,268.95068 C 438.68555,269.11572 438.16699,269.16309 437.80371,269.45752 C 437.22461,270.16602 437.29688,270.81787 438.34863,270.854 L 438.34863,270.854 z M 434.48877,269.09912 L 434.93359,269.58447 C 435.82861,269.37256 436.11621,269.60889 436.92383,269.7998 L 436.60791,269.30225 L 436.94092,268.74707 C 437.7207,268.67822 437.78125,268.01465 437.45215,267.3877 C 437.30811,267.26904 437.03369,267.1626 436.89014,267.04346 C 435.4917,266.25049 435.35938,267.44434 435.02637,267.99951 L 434.48877,269.09912 L 434.48877,269.09912 z M 437.85107,268.66553 C 438.11035,268.64209 438.37158,268.61914 438.61719,268.46631 C 439.09424,268.02881 438.82568,266.73877 438.40527,266.51416 C 438.00244,266.41895 437.78516,266.83203 437.81348,267.09229 L 437.72461,267.49561 L 437.79443,268.14551 L 437.85107,268.66553 L 437.85107,268.66553 z M 396.10205,271.88623 C 396.56543,271.31934 396.72656,270.38477 396.78711,269.72217 C 395.92041,270.19531 396.00391,270.9751 396.10205,271.88623 L 396.10205,271.88623 z M 400.70361,263.45947 C 400.82861,264.63086 400.68115,265.69482 400.27246,266.78223 C 399.75,268.01221 398.48975,269.70166 398.2251,270.90674 L 397.92432,270.53955 C 397.3584,271.37891 397.29395,273.22461 397.65381,274.11133 C 398.36133,273.39111 398.52393,272.45654 398.95898,271.62939 C 399.81641,269.84521 400.96094,268.29785 401.3999,266.28711 C 401.47559,265.75488 401.58154,264.2998 401.26367,263.80322 C 401.10645,263.5542 400.97607,263.56641 400.70361,263.45947 L 400.70361,263.45947 z M 518.96777,266.90527 C 519.64941,265.92383 519.83105,263.93848 520.0918,262.73096 C 520.70898,259.91748 522.01074,258.61865 521.63184,255.10498 C 521.54883,254.32471 521.25,252.7749 520.31543,252.59521 C 518.8584,252.46387 519.45605,254.38037 519.36914,254.78223 C 519.41113,255.17334 519.30859,255.44482 519.20605,255.71729 C 518.56738,257.08789 518.86621,258.6377 518.88867,260.08057 L 518.6123,264.83496 L 518.96777,266.90527 L 518.96777,266.90527 z M 497.93555,244.48779 C 497.96191,244.74756 498.10547,244.8667 498.26465,245.11475 C 498.4082,245.23389 498.55273,245.35205 498.69629,245.4707 C 499.53223,245.9209 499.96777,245.09424 499.64941,244.59619 C 499.49512,244.34766 498.96094,244.26416 498.7002,244.28809 C 498.44238,244.31152 498.18164,244.33447 497.93555,244.48779 L 497.93555,244.48779 z M 517.36328,242.21875 C 517.48828,243.39014 517.95801,245.31934 518.46094,246.32471 L 519.60742,248.45508 L 520.96191,252.5376 C 521.6582,251.68701 521.28809,250.66895 521.06055,249.77002 C 520.47461,247.9834 519.62988,246.21973 518.92676,244.57568 C 518.43848,243.69971 518.08301,242.81104 517.36328,242.21875 L 517.36328,242.21875 z M 510.18457,240.10449 L 510.0791,241.55859 L 508.30371,240.9292 C 508.27441,241.85303 508.68652,243.26074 509.4209,243.98242 L 510.84668,245.03711 C 511.99707,245.98535 513.16309,247.06348 514.19629,248.15234 C 515.10449,249.25391 515.14551,249.64453 515.45996,250.14111 C 515.74805,250.37744 516.03516,250.61523 516.41016,250.44971 C 516.65625,250.29639 516.7168,249.63428 516.81836,249.36182 L 517.25391,248.53467 C 517.44336,247.86133 516.94336,246.85547 516.61426,246.22754 L 515.75488,244.33447 C 515.39551,243.44678 515.17969,242.67773 514.57813,241.94385 C 513.55664,240.98438 512.77734,241.0542 511.69824,240.75635 L 510.18457,240.10449 L 510.18457,240.10449 z M 474.05273,241.90088 C 473.97656,242.43359 473.93164,243.22656 473.2959,243.41455 C 473.16699,243.42627 472.63379,243.34277 472.48926,243.22363 L 471.99414,244.71387 C 471.77441,245.12695 471.36572,246.21484 471.41113,246.60596 C 471.35059,247.26709 472.25879,247.18555 472.7207,246.61914 C 473.20117,246.18213 473.26172,245.51953 473.59473,244.96436 C 474.13184,243.86523 475.12695,243.38086 475.24805,242.05713 L 474.05273,241.90088 L 474.05273,241.90088 z M 514.30566,236.9751 C 514.69238,238.12354 514.96387,238.23047 515.59668,239.22461 C 515.92578,239.85205 515.83887,240.25391 516.60254,240.0542 C 516.14551,239.43848 514.87012,237.31934 514.30566,236.9751 L 514.30566,236.9751 z M 459.84668,243.96338 C 458.38965,243.83203 459.35107,245.45361 459.16162,246.12695 C 458.84375,246.81299 457.3833,247.86377 456.67578,247.40137 C 456.30078,247.56689 455.91113,247.60205 455.50635,247.50635 C 455.10498,247.41064 454.81738,247.17432 454.42773,247.20947 L 452.35791,248.70898 C 451.99463,249.00391 451.50635,249.31055 450.98438,249.35693 C 450.59814,249.39209 450.07617,249.43799 449.84521,249.72314 C 449.48193,250.01709 449.82617,250.7749 450.00049,251.15332 L 450.61719,252.01807 C 449.3457,252.39453 449.44385,253.30469 449.56885,254.47705 C 449.64062,255.12695 449.89062,257.46924 450.07617,257.97803 C 450.27637,258.61768 451.12793,259.19775 451.80176,259.39893 C 452.22168,259.62549 452.88379,259.69629 453.27344,259.66211 L 453.36426,258.07666 L 453.75439,258.04248 L 454.15527,259.3208 C 454.28418,259.30811 454.54492,259.28564 454.67383,259.27344 L 456.28955,259.65479 C 456.43359,259.77295 456.43359,259.77295 456.57715,259.89111 C 456.74756,260.26953 456.42969,260.95557 456.47119,261.34619 C 456.69824,262.24463 457.63672,262.42383 458.4165,262.35352 C 458.39746,263.40576 458.49951,263.13428 458.43896,263.79639 C 458.51074,264.44727 458.12109,264.48242 458.92334,265.85498 C 459.08252,266.10303 459.41162,266.73096 459.80127,266.6958 C 460.19092,266.66113 461.00098,265.66846 461.86768,265.19678 C 462.06787,265.83496 462.08301,265.96582 462.64307,266.31006 L 462.4541,266.9834 L 463.92969,266.06299 C 463.49072,268.07275 462.65479,267.62207 461.74268,268.88623 C 461.4209,269.57275 461.62158,270.21143 461.43213,270.88525 L 461.57617,271.00342 L 462.06787,270.69678 L 462.44287,270.53223 C 463.59668,270.29639 462.7002,271.69092 462.72656,271.95117 C 462.76807,272.34229 463.04443,272.44775 463.31689,272.55566 L 462.70752,273.00342 L 463.06689,273.8916 L 460.72852,274.10156 C 459.57422,274.33643 458.6167,275.21045 457.64795,275.9541 L 457.67822,276.21436 L 458.07959,276.30957 L 455.83936,277.43066 C 456.5166,277.63135 457.39844,277.29053 458.04932,277.23193 C 458.68506,277.04297 458.56787,277.18652 459.33594,276.98438 L 459.75195,277.21143 L 459.67627,277.74316 L 462.52978,278.66846 C 463.20703,278.87061 463.69922,278.56396 464.11914,278.78955 C 464.6792,279.13379 464.48975,279.80713 465.42822,279.98486 C 466.50684,280.28223 467.3623,279.68066 468.25537,279.46875 L 467.19922,280.61523 L 467.6875,281.49121 L 468.95898,281.11475 C 468.0166,282.11768 468.06201,281.32666 466.24561,281.48926 C 466.66211,281.71436 467.89941,282.25928 468.17578,282.36719 C 468.85303,282.56982 469.2124,282.27246 470.16602,282.58301 C 470.97217,282.77197 471.95215,283.3418 472.21338,282.13428 C 472.37207,282.38428 472.53125,282.63232 472.6748,282.75147 C 473.0918,282.97656 473.35254,282.95361 473.75781,283.04834 C 474.29102,283.13184 475.55469,283.9375 475.49805,284.6001 C 475.38086,284.7417 475.26367,284.88379 475.15039,285.02588 C 474.97559,284.64551 474.80566,284.26904 474.50293,283.90186 C 473.75781,283.04834 472.61426,283.41357 471.67627,283.23389 L 469.7876,282.74756 L 468.33105,282.61523 C 467.54004,282.55469 467.09326,282.07031 466.31396,282.14014 C 466.05273,282.16309 465.67822,282.32764 465.7085,282.58838 C 465.73486,282.84766 466.02246,283.08643 466.1665,283.20361 C 467.00244,283.65381 466.69971,283.28662 467.96777,284.09277 C 468.67139,284.55469 468.91748,284.40137 469.59473,284.60352 L 470.28711,284.93652 C 470.8208,285.02002 470.92285,284.74756 471.45654,284.83057 C 471.71387,284.80811 472.24756,284.89111 472.52344,284.99902 L 470.26855,285.98877 L 468.53906,285.75049 C 468.8833,286.50732 469.02734,286.62647 468.44824,287.33398 L 468.13037,286.83838 C 467.78223,287.26221 467.8125,287.52344 467.46436,287.94873 L 466.88525,288.65674 C 466.7832,288.9292 466.43506,289.35498 466.17383,289.37744 C 465.78418,289.41357 465.34131,288.92725 465.0498,288.69092 C 464.48975,288.34619 464.229,288.36914 463.59326,288.55811 C 464.06982,289.30371 464.31592,289.15039 465.00439,289.48145 C 465.56836,289.82568 467.00635,291.01025 467.45312,291.49658 C 467.32031,291.50781 467.19189,291.51953 467.08984,291.79199 C 466.85889,292.07568 467.1123,293.23535 467.41504,293.60059 C 467.70264,293.83887 467.979,293.94482 468.36475,293.91113 L 466.81738,295.36426 C 467.49463,295.56445 467.74072,295.41162 468.31592,295.88623 L 467.01758,296.00147 L 465.30371,294.71143 L 463.51758,293.95068 C 464.18359,294.02246 465.23535,294.06055 465.85596,293.74072 C 466.96875,293.11621 466.43896,291.85059 465.57617,291.13916 C 465.01611,290.79443 464.62598,290.83057 463.96387,290.75879 C 463.43018,290.67529 462.60937,290.354 462.08691,290.40088 L 460.67187,290.66016 L 460.7627,290.25732 C 460.35742,290.1626 460.21387,290.04346 459.85059,290.33887 C 459.41895,289.98291 459.40771,289.85449 458.87402,289.771 L 458.94238,290.41992 L 458.35205,289.81641 L 458.29541,290.47852 C 457.97754,289.98096 457.9624,289.85254 457.41748,289.63867 L 457.85645,291.30566 L 457.64062,291.71973 C 456.91797,292.31006 456.92529,293.62354 457.01221,294.40479 C 457.17871,295.96582 456.83057,296.3916 456.69824,297.58545 C 456.66406,298.50684 456.9668,298.87402 456.71728,300.21143 C 456.64551,300.74316 456.14941,302.23242 455.93018,302.64697 L 455.35107,303.35449 L 454.91602,304.18115 C 454.69629,304.5957 454.33691,304.89063 454.11768,305.30518 C 453.91309,305.84815 454.20068,306.08643 454.35986,306.33447 C 454.5752,307.10254 454.02686,306.88867 454.93115,307.9917 L 454.46924,308.55762 L 454.98779,308.51025 C 454.69629,309.45654 455.28662,310.06201 456.17969,309.8501 C 456.81543,309.66065 457.51172,308.81104 457.70117,308.13574 L 457.9624,308.11279 L 459.71045,310.97754 C 460.01318,311.34473 460.08496,311.99561 460.61865,312.07861 C 461.15234,312.16211 461.35303,311.61914 461.57227,311.20459 C 461.80322,310.9209 462.04932,310.76758 462.27978,310.48389 C 462.60156,309.79883 461.96973,308.80371 462.03027,308.14111 C 462.10205,307.60986 462.46533,307.31445 462.52588,306.65234 C 462.42773,305.74219 461.75,305.53955 461.30371,305.05322 C 460.85693,304.56885 460.8042,304.04883 460.73242,303.39795 C 460.57715,301.96533 461.31494,301.50586 461.45117,300.31201 C 461.49658,299.51904 461.05029,299.03467 460.99316,298.5127 C 460.95166,298.12256 461.03857,297.72168 461.42871,297.68555 C 462.3252,297.47363 462.43506,298.51611 462.50684,299.16553 L 462.38574,300.48975 C 462.31396,301.02344 462.09473,301.43604 462.1665,302.08643 C 462.35205,302.5957 462.65478,302.96289 462.82471,303.34131 C 463.12744,303.70801 463.16943,304.1001 463.45703,304.33643 C 463.72949,304.44238 463.87305,304.55957 464.13428,304.53711 C 464.40674,304.64502 464.6792,304.75049 464.94043,304.72803 C 465.57617,304.53858 466.23047,303.29736 466.83594,302.85108 C 467.19922,302.5542 467.73291,302.63916 468.12256,302.60303 C 467.90332,303.01758 467.32422,303.72705 467.09326,304.00928 C 466.60156,304.31543 465.70459,304.52734 465.65918,305.32031 C 465.38281,306.39697 466.80957,306.26807 466.7793,307.18945 C 466.71875,307.85205 465.7124,307.02295 465.40576,307.83838 C 464.9707,308.66553 465.5459,309.14063 465.74609,309.77979 C 465.78809,310.16992 465.57227,310.58203 465.48144,310.98535 C 464.93262,311.9541 464.47119,311.33887 463.73291,311.79883 C 463.1123,312.11865 462.43115,313.09863 461.79541,313.28809 C 461.29248,313.46387 460.85693,313.10791 460.46728,313.14209 C 459.94873,313.18945 459.51367,314.01807 458.65088,313.30664 C 457.77295,312.46484 458.77197,311.98242 458.55615,311.2124 L 458.02637,309.94629 C 457.28857,310.40625 456.56592,310.99854 456.8081,312.02783 C 457.16748,312.91309 458.03027,313.62451 457.58008,314.3208 C 457.2168,314.61621 456.43701,314.68604 455.83154,315.13477 C 455.09375,315.59619 454.32568,316.97754 454.07959,317.13281 C 453.71631,317.42774 453.32666,317.46192 452.96728,317.75684 L 451.66162,319.05664 C 451.54785,319.19873 451.54785,319.19873 451.43066,319.34082 L 449.80371,318.82959 L 449.90185,319.73975 C 449.25098,319.79834 449.25098,319.79834 448.71728,319.71533 C 448.31641,319.61865 447.52148,319.56006 447.31738,320.10303 C 447.09766,320.51758 448.18018,320.81445 448.45654,320.92041 C 450.10986,321.69238 450.43555,323.50147 449.72803,324.22412 C 449.25098,324.65918 448.42969,324.33936 447.89648,324.25635 C 446.69678,324.10108 444.80859,323.61279 443.62793,323.58838 C 442.06836,323.72656 442.56836,324.73291 442.26562,325.54883 C 442.18945,326.08203 441.69775,326.38867 441.61084,326.79004 C 441.49316,326.93164 441.50879,327.0625 441.52344,327.19287 C 441.50879,327.0625 441.95117,328.73096 441.93603,328.60059 C 442.12158,329.10938 443.03369,329.02832 443.56738,329.11133 C 444.24072,329.31201 444.41504,329.69238 444.97461,330.03662 C 445.52344,330.24854 445.76953,330.09522 446.27637,329.91943 C 447.44238,329.81348 448.55469,330.37158 450.28809,329.42725 C 450.6626,329.2627 451.02588,328.96777 451.12793,328.69531 C 451.47607,328.27149 451.30225,327.89111 451.77881,327.4541 C 452.37305,326.875 453.52734,326.64014 454.13623,326.1919 C 454.61328,325.75488 454.26904,324.99805 455.15039,324.65576 C 455.78613,324.46826 456.49023,324.93018 457.37207,324.5874 C 458.13623,324.38672 458.96143,323.52588 459.72949,323.32568 C 460.50879,323.25537 460.99316,324.13135 462.07568,324.42871 L 466.37061,325.35547 C 466.50293,325.34424 466.77539,325.45215 466.91943,325.57129 C 468.06982,326.51758 466.41211,326.92969 465.77637,327.11914 C 465.26953,327.29492 465.14062,327.30615 464.61865,327.35352 C 464.76611,327.47119 464.77734,327.60156 464.92139,327.7207 C 465.47021,327.93457 466.79443,328.07861 467.2749,327.64111 C 467.50586,327.35742 467.47949,327.09619 467.43799,326.70654 C 467.94092,326.53076 468.18701,326.37744 468.3916,325.83252 C 468.34961,325.44287 468.17578,325.06445 468.53906,324.76904 C 468.77002,324.48535 469.28809,324.43799 469.68164,324.40186 C 469.07617,323.66992 468.58447,323.97608 467.78955,323.91553 C 467.38867,323.82129 467.22949,323.57129 466.82471,323.47705 C 466.43506,323.5127 466.07568,323.80811 465.52686,323.59424 C 465.12207,323.49756 464.69043,323.14209 464.28955,323.04736 C 463.86914,322.82227 462.80225,322.65576 462.86279,321.99316 C 462.96484,321.7207 463.08203,321.5791 463.33936,321.55615 C 463.45703,321.41455 463.58545,321.40283 463.71777,321.38965 L 463.90332,321.90088 C 465.28857,321.38233 464.83789,322.07861 466.0376,322.23389 C 467.11621,322.53076 468.3877,322.1543 469.48486,322.58203 C 470.1626,322.78223 469.94287,323.19678 470.5332,323.80029 C 471.25244,324.39453 472.27783,324.16943 473.18555,324.08789 C 473.07227,324.22998 472.94043,324.24316 472.95508,324.37158 C 472.73535,324.78613 473.02344,325.02246 473.2998,325.12842 C 474.27539,325.69824 475.72559,324.51758 474.48437,323.97266 L 476.47852,323.00586 C 475.51367,322.5669 475.03613,323.00391 473.76855,322.19775 C 474.41992,322.13916 474.54785,322.12793 475.02539,321.69043 L 475.10059,321.15723 L 477.21191,320.04834 C 476.54297,321.15918 477.2959,320.82959 477.54883,321.98975 C 478.2002,321.93115 479.00586,322.12012 479.65723,322.06348 C 480.16406,321.88574 481.54883,321.36719 481.91211,321.07178 C 482.27148,320.77686 482.3623,320.37549 482.72168,320.08057 L 484.22461,319.41992 C 484.83398,318.97168 485.2959,318.4043 485.76074,317.83643 C 485.99121,317.55274 486.22266,317.26904 486.62793,317.36524 C 487.17285,317.5791 487.3125,318.88086 487.36914,319.40137 C 487.54297,319.77979 487.72852,320.28662 487.77051,320.67822 C 487.69043,322.39258 485.88965,322.68604 484.80371,323.57129 C 484.08105,324.16162 483.52832,325.13037 482.77539,325.46143 C 481.80664,326.20508 479.03223,327.24219 477.76074,327.61865 L 475.0625,328.12354 C 474.44238,328.44336 473.71973,329.03369 473.51562,329.57666 C 473.31055,330.12158 473.63965,330.74805 473.01953,331.06592 C 472.39844,331.38574 469.81445,331.74707 469.15186,331.67725 C 468.08496,331.50879 468.44434,331.21338 466.88525,331.35352 C 465.4585,331.48242 463.91455,331.75293 462.44287,331.48975 C 462.67334,331.20606 463.13916,330.63818 463.22607,330.23731 C 463.32812,329.96484 463.18457,329.8457 463.1543,329.58643 C 463.14258,329.45752 463.1123,329.19678 462.96875,329.07764 C 462.66602,328.71045 461.62891,328.80322 461.23926,328.83887 C 460.34228,329.05078 460.50146,329.29883 459.07471,329.42725 L 454.28027,329.98926 C 451.94531,330.19775 450.07959,331.15479 449.17139,331.23633 C 448.52051,331.29492 447.06348,331.1626 446.38623,330.95996 C 445.83789,330.74609 445.26269,330.27149 444.6416,330.59131 C 444.00586,330.78027 443.80176,331.32324 443.05273,331.65234 C 442.29932,331.98389 440.87305,332.11231 440.01758,332.71387 C 439.16602,333.31592 439.61084,333.80176 438.61377,334.28467 C 438.1084,334.4624 436.40723,334.48291 435.75684,334.5415 C 434.31494,334.54004 433.5918,335.13037 432.33398,335.63721 L 430.94678,336.15576 C 430.44189,336.33154 429.41602,336.55518 429.19873,336.96924 C 428.98096,337.38184 429.29687,337.8794 429.33887,338.271 C 429.38037,338.66065 429.29297,339.06201 429.2041,339.46484 C 428.5249,340.44531 426.7749,341.25879 427.06055,342.67969 C 427.2876,343.57861 427.82129,343.66162 428.82764,344.49024 C 430.15039,345.8169 431.13965,347.69922 432.56445,348.75342 C 434.40576,350.03418 437.06982,351.63477 439.34766,352.08692 L 443.30225,352.25733 C 445.42139,352.45996 447.04883,352.97266 449.27393,352.90283 L 454.16309,352.07031 C 455.20361,351.97754 456.74756,351.70703 457.82959,352.00391 C 458.91211,352.30078 459.12402,353.0708 461.07275,352.89502 L 463.78613,352.52051 C 464.42187,352.33301 464.92871,352.15527 465.61768,352.48828 C 467.29004,353.38916 464.45605,355.08789 465.75,356.15527 C 466.46924,356.74756 468.84912,356.92725 469.80273,357.23535 C 470.46533,357.30762 472.55371,358.43311 473.00098,358.91943 C 473.28809,359.15576 473.31445,359.41699 473.61719,359.78418 C 473.91601,360.15137 474.59766,360.35205 474.63867,360.74365 C 474.68066,361.1333 473.84082,361.86572 473.60937,362.14942 C 472.89844,362.87012 471.521,364.70166 472.29687,365.81445 C 472.59961,366.18115 473.4209,366.50098 473.84082,366.72608 L 477.62891,367.83106 C 479.27051,368.47266 479.41113,369.77442 480.40625,370.47266 C 481.11035,370.93604 482.2793,370.83008 483.20312,370.8794 L 487.1084,371.84229 C 488.4668,372.24756 487.89941,373.08545 488.96582,373.25195 C 491.21777,373.44531 494.67383,371.42627 496.50879,370.21143 L 500.23633,368.30029 C 501.72754,367.50977 503.07031,366.59961 504.41406,365.69141 C 506.96094,363.75586 509.0459,361.20313 510.30957,358.33106 C 510.74512,357.5044 511.97852,355.55322 512.05469,355.02197 C 512.22852,354.21777 511.3916,353.76709 511.71387,353.08252 C 512.13379,352.12305 513.8291,350.78906 514.23437,349.70313 C 514.57129,349.14697 514.47266,348.23682 513.9082,347.89258 C 513.36328,347.67871 513,347.97363 511.91797,347.67676 C 512.73535,345.50244 514.21484,343.39844 515.44531,341.44776 C 516.01269,340.60986 517.02637,339.07324 517.0459,338.02149 C 517.0498,336.83887 515.99316,336.80078 515.55078,336.31641 C 515.11914,335.96094 515.21777,335.68848 514.94531,335.58057 C 514.40039,335.36865 513.53027,335.83985 512.99707,335.75635 C 512.60644,335.79053 512.31934,335.5542 512.04687,335.44824 C 511.62695,335.22315 511.12305,335.39893 510.7334,335.43311 C 510.14746,333.64697 511.36914,330.38477 511.96777,328.62354 C 513.13281,324.84082 514.69238,321.021 514.12793,317 L 513.53027,313.90088 C 513.36035,313.52051 513.0459,313.0249 512.53906,313.20069 C 511.77441,313.40137 511.10059,315.69483 510.7832,316.3794 L 509.02734,319.56006 C 508.57715,320.25635 508.28516,321.20264 507.69141,321.78125 C 507.21387,322.21875 506.46094,322.54785 505.84082,322.86572 C 505.63965,322.22803 505.26562,322.39258 504.75879,322.57031 L 502.4043,323.83252 C 501.91309,324.13916 500.94434,324.88281 500.29297,324.94141 C 499.77441,324.98877 499.47168,324.62158 498.70801,324.82031 C 498.18945,324.86768 497.30762,325.20996 496.90234,325.11328 C 496.36914,325.03027 495.79394,324.55713 495.25976,324.47412 C 494.85937,324.37744 494.09082,324.57813 493.71582,324.74268 C 492.41699,324.85986 490.38476,324.25244 489.04199,323.97998 C 489.28809,323.82666 489.54883,323.8042 489.52246,323.54297 C 489.71191,322.86963 488.6748,321.77979 489.94629,321.40283 C 490.07519,321.3916 490.33594,321.36719 490.46484,321.35596 L 492.68555,321.2876 L 493.97363,321.04151 C 494.63574,321.11377 494.80957,321.49219 495.71777,321.41065 L 498.9082,320.59912 C 500.20996,320.48145 500.73535,321.74951 502.08301,320.83936 C 503.18066,320.08447 504.21387,317.49414 504.60742,316.27735 L 505.74219,313.41651 L 506.18164,311.40723 C 506.67676,309.91602 507.12695,309.21973 506.94531,307.52832 L 506.68066,305.05518 C 506.56738,304.01465 506.35547,303.24463 505.28418,304.26074 C 504.45605,305.12354 504.16406,306.06934 502.83984,305.92578 C 502.48828,307.53418 502.71094,309.61524 501.10644,310.54834 C 500.49707,310.99658 499.82031,310.79395 499.18848,310.9834 C 498.80957,311.14795 498.31738,311.45654 498.04492,311.34863 C 497.65527,311.38233 497.36816,311.146 497.32617,310.75635 C 497.39844,310.22461 498.28027,309.88233 498.6582,309.71729 C 499.91504,309.21045 500.55078,309.021 501.47754,307.8877 C 502.04102,307.04785 502.10156,306.38526 502.55176,305.68897 C 503.01367,305.12158 503.41894,305.21631 503.88086,304.65039 C 504.22852,304.22461 504.86816,302.85303 505.20117,302.29834 L 506.79004,297.55713 C 507.55859,296.17383 508.8457,295.92774 509.18262,294.18897 L 509.38281,294.82861 C 510.75684,294.17969 510.74512,292.8667 510.47656,291.57813 C 511.25586,291.50781 512.8418,291.62744 513.47754,291.43994 L 516.4248,289.59912 C 517.16309,289.13721 518.37793,288.24024 518.55176,287.43604 C 518.75586,286.89307 517.91211,285.12988 517.60937,284.7627 C 517.4541,284.51465 517.31055,284.39551 517.03418,284.28955 C 516.35644,284.0874 515.46387,284.29932 514.97559,283.42285 C 514.37012,282.68897 513.70019,280.12158 513.20117,279.11475 C 512.12598,276.45264 512.05469,276.98438 511.55078,275.97852 C 511.22168,275.35156 511.28223,274.68897 511.20996,274.03809 C 511.02539,273.53027 510.72266,273.16309 510.69629,272.90186 C 510.63867,272.38184 511.00195,272.08643 511.35059,271.66162 C 511.89941,270.6919 511.81543,269.91162 512.41016,269.33252 C 512.88672,268.89551 513.30664,269.12158 513.52246,268.70752 C 514.32129,267.58545 512.3916,266.70752 513.04199,265.46631 C 513.375,264.91065 514.31738,263.90723 514.96777,263.84815 C 515.47168,263.67236 515.8916,263.89649 516.39453,263.7207 C 516.88672,263.41309 516.9209,262.49072 517.125,261.94678 C 517.63184,260.5874 518.42676,260.64795 518.62012,258.79199 C 518.68066,258.1294 518.71094,257.20606 518.39648,256.70947 C 517.79101,255.97461 516.93945,256.57715 516.73535,257.1211 C 516.28516,257.81738 516.38379,258.72949 516.4668,259.50977 C 516.4209,260.30176 516.27344,261.36572 515.82324,262.06299 C 515.27441,263.03272 514.15039,262.34522 513.83301,261.84863 C 513.67773,261.59961 513.78027,261.32813 513.75,261.0669 C 513.76855,260.01416 513.46582,259.64795 513.73047,258.4419 C 513.80273,257.90918 514.29785,256.41992 514.14355,256.17139 C 514.09766,255.78076 512.90527,254.44385 512.60644,254.07569 C 512.0166,253.47217 510.95312,252.12207 509.96973,252.73633 C 509.10254,253.20752 509.28418,254.8999 509.12207,255.8335 C 509.03418,256.23535 508.85644,257.03955 508.4668,257.07471 C 508.22461,257.22803 507.79004,256.87207 507.50586,256.63574 C 506.77148,255.91309 506.32519,255.42774 506.20019,254.25635 C 506.60156,254.35108 507.68359,254.64893 507.75879,254.11621 C 507.70215,253.59619 507.08594,252.73145 506.56348,252.77881 C 506.03027,252.69531 505.95801,253.22705 505.25,252.76563 C 504.6748,252.29151 503.39941,250.17236 502.79394,249.43799 C 502.03418,248.45508 500.89844,247.6377 499.78613,247.08057 C 499.1123,246.8794 496.9209,246.02393 496.3125,246.47315 C 496.06641,246.62647 496.10742,247.01611 496.00586,247.2876 C 495.8623,247.17041 495.71777,247.05127 495.46094,247.07422 C 494.52246,246.896 494.24609,247.97168 494.18555,248.63428 C 494.21191,248.89404 494.26855,249.41553 493.89355,249.58008 C 493.51562,249.74463 493.22754,249.5083 492.93945,249.271 C 492.23535,248.80908 492.2207,248.67871 491.27051,248.37012 C 491.45605,248.87891 491.6416,249.38819 491.95605,249.88477 C 492.71973,250.86768 493.23828,250.82031 493.11719,252.146 C 492.02344,251.71826 490.78613,251.17334 490.03711,250.31983 L 491.04785,249.96631 L 491.02051,249.70703 C 490.60449,249.48096 489.17773,248.42676 489.12109,247.90674 C 489.0791,247.51611 489.59766,247.46875 489.55664,247.07861 C 489.64746,246.67676 489.22754,246.45166 489.43164,245.90772 C 489.7793,245.48194 490.53223,245.15186 490.47559,244.63135 C 490.44531,244.3711 490.1582,244.13477 489.88574,244.02783 C 489.32519,243.6836 488.33008,242.98535 487.73633,243.56348 C 487.25976,244.00049 487.61914,244.8877 487.35449,246.09375 C 486.94922,245.99951 486.25684,245.66651 485.85547,245.57178 C 485.32226,245.48828 484.70117,245.80615 484.00879,245.4751 C 483.05566,245.16602 482.71484,244.4082 481.89355,244.0874 C 480.37988,243.43555 479.1084,243.81299 477.69336,244.07129 C 477.0459,244.12891 476.00488,244.22266 475.38476,244.54053 C 474.89258,244.84815 474.67285,245.26123 474.45703,245.67481 C 473.87891,246.38428 472.73535,246.74854 472.84961,247.78906 C 473.07617,248.68897 473.87109,248.74951 474.1582,248.98486 L 474.9873,250.61963 C 474.09375,250.83057 473.67383,250.60645 472.89844,250.67578 L 469.82178,251.34522 C 468.24756,251.35596 467.75928,250.47998 466.79443,250.04102 C 466.24951,249.82715 465.85986,249.86182 465.43994,249.63672 C 465.0083,249.28223 464.9668,248.8916 464.82275,248.77197 C 464.52002,248.40625 463.1958,248.26123 462.80615,248.29639 C 462.83252,248.55762 462.84766,248.68701 462.6167,248.96973 C 462.39746,249.38428 461.28467,250.00977 460.76611,250.05615 C 460.52051,250.20947 460.11523,250.11475 459.84277,250.00781 L 459.91504,249.4751 C 459.97559,248.81397 459.58545,248.84863 459.08252,249.0249 C 458.31396,249.2251 457.85254,249.79199 457.24316,250.24072 C 457.46289,249.82715 457.66699,249.2832 458.01514,248.8584 C 458.49219,248.42139 459.12793,248.23194 459.74853,247.91406 L 461.7124,246.68701 C 462.2041,246.38037 462.95752,246.04932 463.31689,245.7544 C 464.40283,244.86865 464.62988,242.09033 464.34619,240.67041 C 462.33691,241.50635 462.87012,241.58985 461.51172,242.36914 C 461.02002,242.67578 460.75879,242.69971 460.38428,242.86426 C 460.02441,243.16016 459.93359,243.5625 459.84668,243.96338 L 459.84668,243.96338 z M 473.62891,239.18018 L 474.9082,240.1167 L 475.88379,241.86768 C 476.63379,241.5376 476.73535,241.26611 477.24316,241.08936 C 477.48828,240.93604 479.10449,241.31641 478.72949,240.29932 C 478.58594,240.18018 478.44238,240.06201 478.29883,239.94385 L 478.21191,240.3457 C 477.78027,239.99023 477.20508,239.51611 476.65625,239.30225 C 476.10742,239.08936 474.27539,239.12256 473.62891,239.18018 L 473.62891,239.18018 z M 478.02637,239.83691 C 479.84277,239.67432 479.52832,239.17627 480.56934,239.0835 C 481.07227,238.90576 481.87793,239.09717 482.41211,239.18018 L 482.33984,239.71191 C 483.43359,240.13965 483.36523,239.48877 484.17188,239.67871 C 484.99316,239.99951 485.49609,241.00635 486.85059,241.40918 C 487.39551,241.62402 487.67188,241.72998 488.16406,241.42334 C 488.47754,241.9209 488.61035,241.90967 489.12891,241.8623 C 489.18945,241.2002 489.56348,241.03467 489.38965,240.65625 C 489.21973,240.27686 487.84961,239.74316 487.73242,241.06836 C 487.27051,240.45166 487.5166,240.29834 487.34668,239.9209 C 486.88477,239.3042 485.96191,239.25586 485.3252,239.44434 C 485.05664,238.15479 485.22754,238.5332 483.42969,237.64404 C 482.86621,237.30029 481.62891,236.75439 480.96289,236.68262 C 480.17188,236.62207 479.96777,237.16602 479.34668,237.48486 C 478.99902,237.91064 478.59375,237.81494 478.23438,238.11035 C 477.88574,238.53516 477.96973,239.31641 478.02637,239.83691 L 478.02637,239.83691 z M 505.46973,234.08936 L 507.1123,235.91357 C 507.72949,236.77734 508.3457,237.64209 509.08008,238.36377 C 509.65527,238.83789 510.47656,239.15869 511.24121,238.95898 C 511.74805,238.78174 513.28027,237.19922 512.02832,236.52295 C 511.61133,236.29834 510.9873,236.6167 510.60156,236.65137 C 510.63184,235.729 510.5752,235.2085 510.34766,234.30908 C 510.32129,234.04883 510.26465,233.52881 509.75684,233.70557 C 509.13672,234.02441 509.86719,235.92871 508.88672,235.35986 L 508.4707,235.13477 L 508.03906,234.7793 C 507.57422,235.3457 508.12207,235.55957 508.56934,236.04492 C 509.14453,236.52002 509.58691,237.00537 509.67383,237.78564 C 508.2627,236.86035 508.17969,236.08105 507.27148,234.97998 C 506.68457,234.37549 506.25293,234.01953 505.46973,234.08936 L 505.46973,234.08936 z M 511.10449,232.79639 C 511.45996,233.68359 512.85254,235.66113 513.80664,235.96924 C 513.15918,234.84521 512.32715,233.21143 511.10449,232.79639 L 511.10449,232.79639 z M 414.95508,242.34277 C 415.34473,242.30811 415.86523,242.26123 416.12402,242.23779 L 419.51123,243.24756 C 420.44971,243.42627 421.37305,243.4751 421.98975,244.33887 C 420.30176,244.49121 420.66162,244.19531 419.32178,243.92187 C 418.12598,243.7666 417.7627,244.06201 416.83936,244.0127 C 416.30566,243.9292 416.0332,243.82275 415.62842,243.72803 L 412.15088,244.30225 C 411.22754,244.25391 411.02686,243.61523 410.47803,243.40137 C 409.91797,243.05713 409.41113,243.23389 408.91895,243.5415 C 408.04102,243.8833 407.18603,244.48486 406.33252,245.0874 C 404.74121,246.14893 402.90625,247.36523 401.76123,248.91309 C 400.96484,250.03516 401.16357,250.6748 400.3667,251.79687 C 399.55713,252.78906 397.69141,253.74463 396.43115,255.43506 C 395.51758,256.69922 395.60059,257.47949 395.25439,257.90527 C 395.02148,258.18799 393.41699,259.12109 393.04053,259.28564 C 392.66602,259.4502 392.27637,259.48535 392.03027,259.63965 C 391.66895,259.93457 391.45117,260.34814 391.23193,260.76221 L 389.94531,262.19092 C 389.6123,262.74609 388.26123,264.83789 388.1875,265.37061 C 388.15527,266.29297 389.64258,266.68555 388.85742,267.93799 C 388.7417,268.0791 388.62646,268.22119 388.51074,268.36377 C 387.65771,268.96533 387.42871,268.06592 386.7666,267.99414 C 385.9585,267.80371 384.75732,268.83105 384.03809,268.23877 C 383.5918,267.75342 383.78271,267.08008 383.72803,266.55908 C 383.52734,265.92041 383.23975,265.68359 383.0542,265.1748 C 382.72314,264.54639 382.98633,263.34033 382.06641,262.10937 C 381.59375,261.36426 381.04687,261.15039 380.625,262.10889 L 380.31836,262.92334 C 379.80371,261.78809 380.09473,260.8418 379.15625,260.66211 C 377.96094,260.50781 377.5957,261.98584 376.89941,262.83594 C 375.16211,264.96289 374.87305,264.72607 373.54248,265.76416 L 371.77734,267.63086 L 370.67627,268.38672 C 370.08398,268.96533 369.69043,270.18311 369.38574,270.99853 L 368.1123,276.23682 C 367.83398,277.31152 367.3667,279.06348 366.22607,279.42676 C 365.85107,279.59131 364.66699,279.56689 364.26367,279.47217 C 363.8457,279.24707 363.54492,278.88037 363.1416,278.78369 C 362.75195,278.81982 361.71143,278.91211 360.74658,278.47314 C 360.17139,278.00049 359.41064,277.0166 358.86182,276.80469 C 358.31494,276.58887 357.79492,276.63623 357.27637,276.68359 C 356.62549,276.74023 355.71729,276.82324 355.18359,276.74023 C 353.8291,276.33643 352.95459,274.3125 352.43994,273.17627 C 352.25488,272.66748 351.91016,271.90967 351.49219,271.68457 C 350.91699,271.21045 350.22266,272.06103 349.54541,271.85937 C 349.01172,271.77539 347.83105,270.56836 347.14063,270.23535 C 346.99658,270.1167 346.56348,269.76221 346.31934,269.91553 C 346.06006,269.93799 345.98438,270.47168 345.88379,270.74219 C 345.86523,271.79541 346.15479,272.03174 346.75635,272.7666 C 346.8999,272.88428 347.34668,273.37061 346.9834,273.66553 C 346.37793,274.11377 345.50391,272.09033 344.82275,273.07129 C 344.72021,273.34375 344.73535,273.47363 344.61816,273.61426 L 344.35889,273.63818 L 343.73096,271.46143 L 343.63428,270.55029 L 342.76025,268.52686 L 341.68945,269.54248 L 341.43359,268.38281 L 341.07617,267.49561 C 340.87549,266.85693 340.35742,266.90332 339.86523,267.20947 C 338.89648,267.9541 338.22656,269.06494 337.62109,269.51318 C 336.8833,269.97412 336.32129,269.62988 335.81641,269.80664 C 335.1958,270.12549 334.76025,270.95215 334.56934,271.62695 L 333.57031,276.97119 C 332.70557,281.12207 332.15332,282.09082 332.62988,286.51465 L 333.15576,288.96338 L 333.6499,292.33496 L 334.09082,294.00342 L 334.35156,293.979 C 334.16992,292.2876 334.22314,289.12939 334.70361,287.51025 C 335.17285,285.76172 335.92236,285.43066 335.95996,283.32471 L 336.27051,285.00684 C 336.97998,284.28369 336.9248,283.76367 337.92041,283.28125 C 338.25146,283.90723 338.39502,284.02686 338.60889,284.79687 C 338.80957,285.43408 338.86426,285.95459 339.19531,286.58301 C 339.5249,287.20898 339.79736,287.31689 340.11328,287.81445 C 340.41602,288.17969 340.61475,288.81934 340.7998,289.32812 C 341.15967,290.21582 341.44336,291.63672 342.52344,291.93359 C 342.9458,290.97607 342.8208,289.80518 342.83594,288.75146 C 342.93799,288.479 342.98535,287.68799 343.22949,287.53467 C 343.86523,287.34521 344.12256,288.50537 344.16406,288.89502 C 344.53516,289.91309 344.80566,291.20361 345.42236,292.06592 C 346.06738,293.19189 346.57471,293.01416 347.41846,294.77734 L 347.60938,294.104 C 347.96729,294.99121 347.51709,295.68945 348.49707,296.25732 C 348.44043,295.73682 348.33447,293.51367 348.5498,293.09912 C 348.65234,292.82666 349.04199,292.79248 349.30322,292.77002 L 349.90869,297.18213 C 349.96338,297.70264 350.16211,298.34229 350.46484,298.70947 C 351.19873,299.43213 352.05225,298.82861 352.38135,299.45654 L 352.89404,301.77441 C 353.33496,303.44336 353.9502,305.49072 354.63477,307.00439 C 355.15137,308.14111 355.83838,309.65674 356.71631,310.49707 C 357.01904,310.86426 357.46387,311.35059 357.96875,311.17236 C 358.47607,310.99658 358.27539,310.35693 358.36231,309.95605 C 358.43799,309.42432 358.68213,309.271 358.771,308.86816 C 358.83154,308.20557 358.61572,307.43555 358.94873,306.88135 C 358.7749,307.68555 359.04736,307.7915 359.13232,308.57275 C 359.24414,309.61328 359.49951,310.77344 359.87207,311.78955 C 360.42871,313.31836 360.84277,314.72412 361.77588,316.08643 C 362.39453,316.95117 363.81934,318.00488 364.68213,318.71631 C 365.86279,319.92334 367.02637,321.00195 368.45117,322.05566 L 370.15039,323.21777 L 371.56152,324.14307 C 372.81445,324.81836 372.94678,323.62256 373.72607,323.5542 C 374.13086,323.64893 375.55371,324.70264 375.98535,325.05859 C 378.17285,327.09619 377.45361,326.50439 378.96338,328.33936 L 382.36914,331.97412 C 383.24707,332.81445 384.33691,334.42627 385.53467,334.57959 L 386.73242,334.73682 C 388.07227,335.01123 389.5708,335.5332 390.9707,335.14356 C 391.49121,335.09619 391.85254,334.80273 392.08496,334.51904 C 392.43164,334.09326 392.63574,333.55029 393.15625,333.50293 C 393.68945,333.58643 394.9292,334.13135 395.47559,334.34668 C 396.85889,335.00928 398.81738,336.14795 400.2876,336.40918 C 401.75928,336.67236 402.81543,335.52588 402.57324,334.49658 C 402.20215,333.47852 400.64697,332.43604 399.81641,330.80322 C 399.01221,329.43115 398.45606,327.9043 397.53613,326.67236 L 395.42481,324.10303 L 394.16065,322.11426 L 393.54395,321.25 C 393.38525,321.00195 393.1582,320.10303 393.11621,319.71143 L 391.6709,316.03125 C 391.01221,314.77686 389.71045,314.89404 388.8667,313.13086 C 389.47021,313.86475 390.62256,314.81299 391.44189,315.13281 C 391.07129,314.11475 390.24023,312.48193 389.62158,311.61719 L 388.29932,310.29102 C 389.01807,310.88281 389.59326,311.35791 390.53174,311.53564 L 390.80811,310.45898 C 391.2168,309.37109 391.59131,309.20654 391.58203,307.89355 C 391.47412,305.67041 389.4209,302.43848 389.12793,299.70654 C 389.00098,298.53516 389.26416,297.33008 389.39844,296.13623 L 389.43457,294.03027 C 389.39258,293.64014 389.62354,293.35449 389.69922,292.82471 L 389.6748,291.38135 C 389.85059,290.57715 389.95264,290.30469 389.86963,289.52295 L 389.24121,287.34717 L 389.20361,285.77295 L 388.97852,283.69189 C 388.81006,282.13086 389.6499,281.39844 389.79785,280.33496 C 389.87353,279.80176 389.19971,278.4165 388.91016,278.18018 C 388.49219,277.95508 387.59912,278.16699 387.91699,277.48193 C 388.23682,276.79687 389.41553,278.00391 389.71826,278.37109 C 390.09668,277.02393 389.80908,276.78564 389.55371,275.62646 L 389.05957,272.25488 C 388.83252,271.35547 388.25732,270.88232 388.21387,270.4917 C 388.30273,270.08936 388.69238,270.0542 389.1543,269.48779 C 389.61963,268.92041 389.80908,268.24658 389.86963,267.58447 L 389.89209,265.34863 C 390.03809,264.28467 390.93652,262.89014 392.07959,262.5249 C 393.23389,262.29053 394.4126,263.49756 395.06152,263.43994 C 395.7124,263.38086 396.03027,262.69629 396.24951,262.28174 L 397.74805,257.94336 L 398.00928,257.91943 C 398.6543,259.04541 399.33203,259.24658 400.20801,260.08789 L 400.95703,260.94043 C 401.10107,261.05859 401.34717,260.90527 401.59277,260.75195 C 402.05469,260.18506 402.61084,258.0332 402.28174,257.40576 C 402.09619,256.89697 401.521,256.42285 401.32031,255.78418 C 401.27881,255.39355 401.49658,254.97998 401.71387,254.56689 C 402.02051,253.75049 402.18164,252.81641 402.77344,252.23779 C 403.94678,250.9502 406.28516,250.73975 407.70996,251.79492 C 408.43115,252.38721 408.34033,252.78906 408.64307,253.15625 C 409.08936,253.6416 409.73828,253.58398 409.95215,254.35303 C 409.98047,254.61328 409.92187,255.27539 409.83301,255.67725 C 409.91797,256.45801 410.07324,256.70654 409.76855,257.52197 C 409.3335,258.34912 408.61084,258.93945 408.31738,259.88525 C 407.91064,260.97314 408.57471,261.04541 408.41211,261.979 C 408.12061,262.92529 407.41113,263.646 407.11963,264.5918 C 406.78467,265.14746 406.8418,265.66748 406.23633,266.11621 C 405.74414,266.42236 404.94971,266.36279 404.43115,266.40918 C 403.66504,266.60889 403.05762,267.05811 402.43701,267.37646 C 402.46338,267.63721 402.4917,267.89648 402.64893,268.14551 C 402.86426,268.91455 403.51367,268.85596 404.14746,268.66748 C 405.17285,268.44531 406.53125,267.66553 407.54004,268.49463 C 408.41602,269.33643 408.68262,271.80859 409.43018,272.66064 C 410.14893,273.25293 410.66943,273.20654 411.47705,273.39697 C 412.02393,273.61084 412.44238,273.83594 412.87353,274.19141 C 413.88037,275.02002 413.5625,275.70605 414.02002,276.32129 C 414.45166,276.67578 414.82812,276.51318 415.27295,276.99756 L 417.18164,280.10986 L 418.49707,278.94092 C 418.94336,279.42676 419.46387,279.37939 419.52246,278.71729 C 419.48096,278.32764 419.26904,277.55957 419.09473,277.1792 C 419.97266,278.021 420.04297,278.67188 420.03906,279.85449 C 420.06738,280.11377 419.96533,280.38623 420.12402,280.63623 C 420.1792,281.1543 420.81103,282.1499 421.24219,282.50537 C 421.8042,282.84766 422.17871,282.68311 422.6709,282.37646 C 423.12109,281.68018 423.38428,280.47314 424.07861,279.62354 C 424.65967,278.91406 425.81348,278.67969 426.85644,277.40234 C 426.58398,277.29639 425.76269,276.97656 425.84961,276.57373 C 426.05371,276.03076 426.8335,275.96045 427.32519,275.65332 C 428.04834,275.06299 428.60059,274.09326 428.76172,273.16016 L 427.17383,273.03906 L 426.2373,272.86035 L 424.9375,272.97803 L 423.65869,272.04102 L 421.81201,271.94385 C 422.12988,271.25879 422.34912,270.84424 423.12891,270.77441 C 423.51855,270.73926 424.06543,270.9541 424.31152,270.80078 C 424.81641,270.62305 424.75977,270.10254 425.12305,269.80762 C 425.81738,268.95703 426.84082,268.73389 426.99072,267.66943 C 428.05762,267.83594 428.29053,267.55322 428.82227,267.63623 C 429.91748,268.06299 430.2583,270.00342 430.75977,271.00977 C 429.40478,270.60596 429.66016,271.76514 429.62793,272.6875 C 430.12012,272.38086 430.69922,271.67236 431.2041,271.49512 L 432.90723,271.47363 C 433.29687,271.43848 433.41211,271.29736 433.78906,271.13184 C 434.68359,270.9209 435.27393,271.52441 435.74707,272.27002 C 436.23926,271.96338 436.21094,271.70264 435.89453,271.20557 L 436.54394,271.14697 L 436.17285,270.13037 C 435.52393,270.18799 435.37793,270.06982 435.18896,270.74316 C 434.62891,270.3999 434.62891,270.3999 433.96484,270.32764 L 434.44336,269.8916 L 434.41309,269.63037 C 433.30469,269.07324 434.57617,268.69678 434.76514,268.02246 C 434.854,267.62012 434.69727,267.37256 434.53809,267.12354 L 436.1709,266.45117 C 436.86523,265.60156 437.45557,266.20508 437.74707,265.25879 C 439.08691,265.5332 438.646,263.86475 439.6582,263.51074 C 439.90234,263.35742 440.30518,263.45312 440.56641,263.4292 C 440.94092,263.26465 441.31543,263.1001 441.69385,262.93457 C 442.2124,262.88818 442.47363,262.86572 442.97656,262.6875 C 443.46875,262.38135 443.91894,261.68408 444.26709,261.25928 C 444.49805,260.97412 444.97461,260.53809 445.07715,260.26562 C 445.16406,259.86377 444.99365,259.48633 444.92578,258.83447 C 445.45898,258.91748 445.84912,258.88281 446.19336,258.45801 C 446.55664,258.1626 446.5,257.64209 445.95117,257.42871 C 445.82227,257.44092 445.43262,257.47607 445.3042,257.4873 L 447.09766,255.88086 L 447.44971,254.27246 L 446.94238,254.44922 L 447.1206,253.64502 L 445.68994,253.77393 C 445.9209,253.49023 446.61719,252.63965 446.84814,252.35596 C 447.45752,251.90723 448.11963,251.97949 448.42627,251.1626 C 447.14307,251.40967 445.56543,252.60205 444.75537,253.59424 L 443.49121,255.28369 L 443.56738,254.75195 C 442.2959,255.12939 442.37891,255.91016 441.88672,256.2168 L 441.64111,256.36963 C 442.03076,256.33496 439.41992,256.43799 439.82471,256.53369 C 439.16064,256.46143 438.44141,255.86963 437.86621,255.39453 C 437.4331,255.03955 437.13379,254.67285 436.64209,254.97998 L 434.20898,253.09668 C 434.43945,252.81299 434.55713,252.6709 434.26953,252.43359 C 433.98193,252.19678 433.30469,251.99463 432.74268,251.65088 C 431.73389,250.82227 431.78125,250.0293 431.6543,248.8584 C 431.54492,247.81787 431.41211,247.8291 431.05664,246.94141 C 430.88428,246.56201 430.85596,246.30225 430.55322,245.93506 C 430.25244,245.56787 429.54687,245.10645 429.11523,244.75049 C 428.54004,244.27734 427.82129,243.68457 427.15723,243.6123 C 426.2207,243.43457 425.49756,244.0249 424.68799,243.83398 C 424.01074,243.63232 423.13428,242.7915 422.31348,242.4707 C 421.77978,242.38721 421.13086,242.4458 420.61035,242.49219 C 420.58203,242.23193 420.52539,241.71191 420.25293,241.60498 C 419.83642,241.37988 419.0835,241.70996 418.56494,241.75635 C 418.04492,241.80273 417.87256,241.42432 417.46973,241.32861 C 417.06641,241.23389 415.23291,241.26709 415.00049,241.55029 C 414.75439,241.7041 414.92822,242.08252 414.95508,242.34277 L 414.95508,242.34277 z M 507.78223,228.75879 C 508.8457,230.1084 510.74512,231.90869 512.3457,232.15967 C 511.87305,231.41309 511.46777,231.31885 510.89258,230.84473 C 510.04492,230.26367 508.60352,229.0791 507.78223,228.75879 L 507.78223,228.75879 z M 497.38281,223.51758 L 497.05371,222.89014 C 497.60254,223.10303 498.15137,223.31689 498.46582,223.81445 C 498.63574,224.19287 498.66602,224.45313 498.70801,224.84375 C 498.79102,225.62451 500.15723,227.34131 500.94824,227.40088 C 501.22363,227.50781 501.20898,227.37842 501.46973,227.35449 L 500.7998,224.78711 C 500.49707,224.41992 500.12305,224.58545 499.67676,224.1001 L 496.97461,220.92627 C 496.81543,220.67725 496.21387,219.94336 496.30078,219.54199 C 496.53125,219.2583 497.18262,219.19971 497.44336,219.17725 L 494.96875,216.90283 C 494.68066,216.66553 494.23438,216.18018 493.72754,216.35693 C 493.22363,216.53369 493.03418,217.20752 492.81445,217.62061 C 492.59863,218.03516 492.25098,218.45996 492.29199,218.85059 C 492.47754,219.35986 493.06836,219.96338 493.36816,220.33008 L 495.67285,222.2251 C 496.2627,222.82959 496.56152,223.19678 497.38281,223.51758 L 497.38281,223.51758 z M 531.05859,223.25439 C 530.71777,221.31396 529.46875,219.45605 528.00488,218.01123 L 525.7002,216.11572 C 524.81055,215.14502 523.84961,213.52344 522.54004,212.32666 C 521.10254,211.14209 520.02051,210.84521 518.74121,209.90869 L 516.56543,208.00146 L 512.68262,204.80273 C 511.67578,203.97412 510.48047,202.63525 509.71973,201.65332 C 508.94336,200.54004 509.16309,200.12646 508.7168,199.64111 C 508.41406,199.27393 507.32031,198.84619 506.78711,198.76318 L 506.99121,198.21924 L 506.02637,197.78027 C 506.56348,196.68115 505.81055,197.01123 505.0498,196.0293 C 504.74707,195.66211 504.69434,195.14062 504.21777,194.39551 C 503.47168,193.54297 502.47656,192.84375 501.5,192.27539 L 496.7627,189.67822 C 495.2334,188.896 493.14355,187.76904 491.42969,187.66064 C 490.11621,187.64697 489.27637,188.37939 487.98926,188.62549 C 486.83594,188.86084 484.3418,188.82227 483.54297,189.94434 C 482.7334,190.93652 484.76172,192.72559 485.49609,193.44824 L 487.55078,195.49658 C 488.1416,196.10107 488.31152,196.47949 488.91309,197.21338 C 489.49219,197.6875 490.6123,198.37549 491.07422,198.99023 C 491.53223,199.60596 490.76758,199.80664 491.38379,200.67041 C 491.85742,201.41602 493.01172,202.36377 493.35645,203.12158 C 493.54199,203.63037 493.625,204.41113 494.05664,204.76709 C 494.47266,204.99219 494.96484,204.68457 495.35449,204.64941 C 495.99023,204.46143 497.85645,203.50586 498.41602,203.8501 C 498.97656,204.19336 500.89063,206.12354 501.33789,206.60986 C 501.625,206.84619 502.21191,207.44971 502.125,207.85303 C 502.19629,208.50293 500.14941,207.7666 500.6377,208.64258 C 500.7959,208.8916 502.04883,209.56689 502.48047,209.92285 L 504.07715,211.35596 L 505.93164,212.76562 C 506.36328,213.12158 506.83594,213.8667 507.25586,214.09229 C 508.07715,214.4126 508.49707,213.45557 509.20508,213.91699 C 510.58594,214.58105 511.57715,216.46387 513.01563,217.64795 C 513.99219,218.2168 514.2373,218.06348 515.05859,218.38428 C 515.75098,218.71631 516.19824,219.20166 516.90137,219.66406 C 518.01074,220.22119 518.10156,219.81934 519.39551,220.88574 C 521.12109,222.30664 522.58984,223.75195 524.06934,225.32715 C 524.65918,225.93066 526.1123,227.24561 526.79004,227.44727 C 526.91895,227.43604 527.04688,227.4248 527.17969,227.4126 L 528.66699,226.62256 C 528.66699,226.62256 528.7998,226.60986 528.78418,226.48047 C 528.87109,226.07861 528.81445,225.55811 528.90137,225.15576 C 528.99219,224.75391 529.23828,224.60059 529.31055,224.06787 C 529.39746,223.66699 529.31445,222.88525 529.68848,222.7207 C 530.06738,222.55518 530.78613,223.14746 531.05859,223.25439 L 531.05859,223.25439 z M 499.3584,189.44482 C 499.30176,188.92432 499.1582,188.80615 498.97266,188.29736 C 498.19629,187.18457 497.33398,186.47412 496.10742,186.05762 C 495.70703,185.96338 494.49609,185.67725 494.27637,186.09082 C 493.94336,186.646 495.35449,187.57129 495.77051,187.79639 C 496.20215,188.15137 496.75098,188.36523 497.18262,188.72119 C 498.01855,189.17139 498.41992,189.2666 499.3584,189.44482 L 499.3584,189.44482 z M 448.479,178.5083 C 450.19727,178.61621 450.84424,178.55859 452.48633,179.19873 C 453.98486,179.72119 454.86279,180.56201 456.58105,180.6709 L 454.65479,178.61035 L 455.75244,177.85547 C 455.17725,177.38135 454.91992,177.4043 454.35596,177.06104 C 454.06836,176.82422 454.04199,176.56348 453.75439,176.32666 C 453.49316,176.35059 452.84229,176.4082 452.58496,176.43164 C 451.81689,176.63135 451.18457,176.8208 450.30322,177.16211 C 449.53467,177.36182 448.51318,177.58496 448.479,178.5083 L 448.479,178.5083 z M 456.354,174.91162 C 456.16455,175.58496 455.52881,175.77344 454.91992,176.22168 C 455.06348,176.33984 455.07861,176.4707 455.22266,176.58887 C 455.64258,176.81396 457.77686,177.14795 458.31055,177.23193 C 459.62354,177.24561 459.66895,176.45361 461.21289,176.18311 L 463.14648,175.87842 C 464.96289,175.71484 467.44531,175.62402 469.06494,174.82178 C 468.44824,173.95801 468.05859,173.9917 467.1084,173.68359 C 465.62158,173.29102 464.03564,173.1709 462.51855,173.70068 C 461.11816,174.08936 461.1748,174.60986 459.35498,174.77344 L 456.354,174.91162 L 456.354,174.91162 z M 428.76709,397.57275 C 398.43311,391.09619 434.9375,398.85791 428.76709,397.57275 L 428.76709,397.57275 z "
   style="fill:black;fill-opacity:1"
   id="path2047" />

		</g>
    </g>
  </g>
</svg>
