<?xml version="1.0" encoding="utf-8"?>
<!-- Generator: Adobe Illustrator 13.0.2, SVG Export Plug-In . SVG Version: 6.00 Build 14948)  -->
<!DOCTYPE svg PUBLIC "-//W3C//DTD SVG 1.1//EN" "http://www.w3.org/Graphics/SVG/1.1/DTD/svg11.dtd">
<svg version="1.1" id="Layer_1" xmlns="http://www.w3.org/2000/svg" xmlns:xlink="http://www.w3.org/1999/xlink" x="0px" y="0px"
	 width="720px" height="219px" viewBox="0 0 290.793 88.128" enable-background="new 0 0 290.793 88.128"
	 xml:space="preserve">
<g>
	<g>
		<path fill="#AB0635" d="M200.125,64.173c-2.305,4.42-5.158,6.965-9.647,6.965c-6.614,0-11.172-6.421-11.172-15.687
			c0-9.51,4.558-15.87,11.351-15.87c6.012,0,8.075,4.483,9.596,7.631v-6.905h4.973v30.16c0,7.874-4.793,12.355-13.109,12.355
			c-6.857,0-11.533-3.147-11.533-7.69c0-0.728-0.023-1.687,0.338-2.727l4.388,1.992c-0.41,3.115,3.231,4.247,6.808,4.247
			c4.976,0,8.01-2.362,8.01-6.361V64.173 M184.71,54.602c0,5.33,0.729,8.176,2.731,10.236c1.211,1.272,2.851,1.939,4.915,1.939
			c4.919,0,7.829-3.999,7.829-10.662c0-7.691-3.219-12.475-8.314-12.475C187.317,43.64,184.71,47.637,184.71,54.602"/>
		<path fill="#AB0635" d="M236.681,54.966c0,9.872-5.584,16.172-14.143,16.172c-8.135,0-13.777-6.542-13.777-15.991
			c0-9.145,5.707-15.627,13.838-15.627C230.854,39.52,236.681,45.88,236.681,54.966 M214.103,55.451
			c0,7.206,3.216,11.326,8.923,11.326c5.157,0,8.314-4.301,8.314-11.45c0-8.175-3.828-11.505-8.802-11.505
			C217.319,43.822,214.103,47.88,214.103,55.451"/>
		<polygon fill="#AB0635" points="235.901,40.307 240.864,40.307 248.331,63.143 255.619,40.307 260.514,40.307 251.09,70.23 
			245.64,70.23 		"/>
		<polygon fill="#AB0635" points="83.059,7.936 91.498,7.658 82.187,13.071 80.833,21.212 76.522,16.367 67.3,21.658 73.949,13.345 
			69.604,8.381 78.018,8.104 84.455,0 		"/>
		<path fill="#292970" d="M66.798,10.82C33.275,15.171,8.456,26.513,0,36.196c8.803-8.185,37.118-17.68,69.103-22.648"/>
		<path fill="#292970" d="M80.744,25.865c-0.866,0-1.882,0.069-2.676,0.552c-1.954,1.235-1.809,5.289-1.809,7.213v17.862
			c0,5.429-0.29,11.612-4.633,15.667c-3.835,3.573-8.833,4.536-14.046,4.536c-3.328,0-6.081-0.345-9.266-1.446
			c-8.468-2.956-11.075-8.038-11.075-16.283V25.865h-5.647v-1.374h22.224v1.374H48.17v26.659c0,3.984-0.362,8.519,2.245,11.954
			c2.533,3.365,5.789,4.467,10.062,4.467c4.778,0,9.916-1.856,12.233-6.047c1.957-3.573,1.812-7.836,1.812-11.749V33.012
			c0-4.192-0.148-7.215-5.284-7.215h-1.377v-1.306h13.392v1.374H80.744"/>
		<path fill="#292970" d="M139.666,70.23v-1.308h5.414l-4.851-13.191H127.29l-2.814,7.627c-0.422,1.101-0.702,2.337-0.702,3.506
			c0,2.334,3.516,2.058,5.131,2.058v1.308h-13.5v-1.308h1.619c3.374,0,4.639-2.336,5.695-5.153l14.838-40.535h0.982l17.791,45.688
			h4.502v1.308H139.666 M133.828,37.867l-5.976,16.421h11.886L133.828,37.867z"/>
		<path fill="#AB0635" d="M169.689,71.048c-2.797,0-5.126-2.373-5.126-5.228c0-2.852,2.329-5.227,5.126-5.227
			c2.797,0,5.054,2.375,5.054,5.227C174.743,68.675,172.486,71.048,169.689,71.048"/>
		<path fill="#292970" d="M100.335,71.326c-4.156,0-7.384-1.168-11.255-2.542c-0.36-0.136-0.79-0.274-1.147-0.41
			c-0.788-0.343-2.151-1.237-3.012-1.237c-1.79,0-1.434,1.717-2.151,2.541l-0.069,0.552H81.48l-0.359-17.316h1.36
			c1.15,4.535,2.583,8.04,5.881,11.474c3.226,3.365,7.027,5.562,11.904,5.562c5.377,0,10.179-3.431,10.179-8.86
			c0-6.183-5.235-7.625-10.467-8.861l-4.163-0.963c-3.724-0.826-7.378-1.512-10.318-3.984c-1.148-0.963-1.94-1.994-2.655-3.301
			c-1.219-2.194-1.721-4.602-1.721-7.074c0-8.452,7.096-13.673,15.487-13.673c3.869,0,7.097,1.166,10.615,2.679
			c1.001,0.413,2.219,1.1,3.368,1.1c1.648,0,1.72-1.441,1.792-2.68h1.363v14.769h-1.435c-1.434-7.415-6.527-14.494-15.131-14.494
			c-4.874,0-9.964,2.817-9.964,7.97c0,5.429,5.735,6.665,10.252,7.557c2.438,0.482,4.876,0.824,7.241,1.374
			c7.887,1.785,12.19,6.527,12.19,14.36C116.899,65.006,109.729,71.326,100.335,71.326"/>
		<path fill="#292970" d="M91.7,82.778c-0.483,0.592-0.689,0.815-1.155,1.135c-1.047,0.753-2.405,1.184-3.747,1.184
			c-3.643,0-6.014-2.271-6.014-5.76c0-3.982,2.337-6.464,6.152-6.464c1.908,0,3.439,0.962,4.281,2.062l-1.001,1.283
			c-0.79-1.168-1.973-1.904-3.365-1.904c-2.665,0-4.263,1.84-4.263,4.927c0,2.799,1.58,4.449,4.247,4.449
			c1.769,0,2.631-0.834,3.162-1.408v-1.871h-4.833v-1.424H91.7V82.778"/>
		<path fill="#292970" d="M102.18,80.827c0,2.606-1.58,4.27-4.002,4.27c-2.304,0-3.902-1.726-3.902-4.22
			c0-2.42,1.615-4.132,3.919-4.132C100.531,76.745,102.18,78.426,102.18,80.827 M95.787,80.956c0,1.901,0.909,2.993,2.525,2.993
			c1.466,0,2.357-1.139,2.357-3.026c0-2.161-1.082-3.039-2.491-3.039C96.696,77.884,95.787,78.955,95.787,80.956"/>
		<polygon fill="#292970" points="103.681,77.193 105.069,77.193 107.17,83.225 109.214,77.193 110.589,77.193 107.944,85.097 
			106.412,85.097 		"/>
		<path fill="#292970" d="M119.469,82.828c-0.324,0.671-0.511,0.927-0.891,1.281c-0.721,0.655-1.632,0.988-2.661,0.988
			c-2.255,0-3.769-1.692-3.769-4.174c0-2.466,1.569-4.178,3.835-4.178c2.082,0,3.611,1.599,3.611,3.763
			c0,0.238-0.017,0.511-0.037,0.846h-5.909c0.134,2.672,2.074,2.672,2.389,2.672c1.63,0,2.095-1.248,2.284-1.728L119.469,82.828
			 M118.097,80.283c-0.138-2.449-1.96-2.449-2.18-2.449c-1.345,0-2.151,0.879-2.239,2.449H118.097z"/>
		<path fill="#292970" d="M123.473,78.727c0.432-0.735,1.018-1.725,2.257-1.725c0.168,0,0.374,0.014,0.599,0.03v1.394
			c-0.361-0.048-0.53-0.066-0.737-0.066c-1.259,0-2.135,0.847-2.135,2.049v4.688h-1.426v-7.904h1.442V78.727"/>
		<path fill="#292970" d="M135.422,85.097h-1.441V80.01c0-1.187-0.658-1.873-1.759-1.873c-1.25,0-2.147,0.815-2.147,1.968v4.992
			h-1.441v-7.904h1.441v1.409c0.792-1.074,1.719-1.616,2.768-1.616c1.531,0,2.579,1.055,2.579,2.622V85.097"/>
		<path fill="#292970" d="M149.724,85.097h-1.426v-5.103c0-1.171-0.632-1.872-1.668-1.872c-1.27,0-1.924,0.782-1.924,2.305v4.67
			h-1.444v-4.786c0-1.52-0.516-2.205-1.669-2.205c-1.132,0-1.922,0.866-1.922,2.077v4.914h-1.427v-7.904h1.427v1.458
			c0.684-1.155,1.445-1.665,2.49-1.665c1.223,0,1.907,0.607,2.374,1.727c0.479-0.688,1.185-1.727,2.646-1.727
			c1.478,0,2.543,1.102,2.543,2.575V85.097"/>
		<path fill="#292970" d="M159.472,82.828c-0.329,0.671-0.516,0.927-0.893,1.281c-0.725,0.655-1.636,0.988-2.662,0.988
			c-2.257,0-3.769-1.692-3.769-4.174c0-2.466,1.563-4.178,3.834-4.178c2.081,0,3.609,1.599,3.609,3.763
			c0,0.238-0.015,0.511-0.036,0.846h-5.91c0.137,2.672,2.078,2.672,2.389,2.672c1.63,0,2.097-1.248,2.285-1.728L159.472,82.828
			 M158.096,80.283c-0.14-2.449-1.96-2.449-2.179-2.449c-1.346,0-2.154,0.879-2.241,2.449H158.096z"/>
		<path fill="#292970" d="M168.821,85.097h-1.441V80.01c0-1.187-0.653-1.873-1.753-1.873c-1.256,0-2.151,0.815-2.151,1.968v4.992
			h-1.442v-7.904h1.442v1.409c0.793-1.074,1.723-1.616,2.767-1.616c1.531,0,2.578,1.055,2.578,2.622V85.097"/>
		<path fill="#292970" d="M173.587,73.931v3.026h1.805v1.118h-1.805v4.782c0,0.833,0.172,1.092,0.755,1.092
			c0.207,0,0.429-0.033,0.947-0.146v1.121c-0.636,0.127-1,0.173-1.309,0.173c-1.321,0-1.836-0.398-1.836-1.437v-5.585h-1.532v-1.118
			h1.532v-2.066L173.587,73.931"/>
		<polygon fill="#292970" points="218.217,73.561 220.846,73.561 220.846,85.097 219.317,85.097 219.317,74.84 215.963,85.097 
			214.297,85.097 210.928,74.84 210.928,85.097 209.401,85.097 209.401,73.561 212.047,73.561 215.137,82.954 		"/>
		<path fill="#292970" d="M223.562,78.538c0.31-0.704,0.839-1.808,3.488-1.808c3.128,0,3.128,1.552,3.128,2.336l-0.022,3.872
			c0,0.978,0.054,1.056,0.673,1.073v0.913c-0.445,0.127-0.673,0.173-0.91,0.173c-1.112,0-1.2-0.863-1.2-1.55
			c-0.499,0.575-1.374,1.55-2.858,1.55c-1.489,0-2.626-1.103-2.626-2.577c0-0.622,0.294-1.28,0.774-1.74
			c0.602-0.578,1.438-0.882,2.814-1.01c1.223-0.127,1.379-0.173,1.913-0.687c-0.018-0.96-0.36-1.199-1.615-1.199
			c-1.307,0-1.979,0.351-2.377,1.247L223.562,78.538 M228.736,80.091c-0.604,0.431-0.771,0.496-1.756,0.655
			c-0.979,0.159-1.423,0.353-1.806,0.769c-0.272,0.287-0.431,0.638-0.431,1.024c0,0.866,0.656,1.472,1.601,1.472
			c0.586,0,1.187-0.24,1.631-0.64c0.571-0.514,0.761-1.008,0.761-2V80.091z"/>
		<path fill="#292970" d="M238.516,73.334h1.444v11.54h-1.423v-1.841c-0.535,0.879-0.998,2.064-2.726,2.064
			c-1.954,0-3.191-1.632-3.191-4.178c0-2.449,1.291-4.128,3.182-4.128c1.665,0,2.267,1.138,2.714,2.05V73.334 M234.121,81.113
			c0,1.792,0.756,2.847,2.04,2.847c0.549,0,1.135-0.221,1.529-0.607c0.589-0.512,0.826-1.264,0.826-2.448
			c0-3.009-2.181-3.009-2.339-3.009C234.817,77.945,234.121,79.046,234.121,81.113"/>
		<path fill="#292970" d="M249.708,82.828c-0.327,0.671-0.515,0.927-0.893,1.281c-0.722,0.655-1.632,0.988-2.664,0.988
			c-2.258,0-3.768-1.692-3.768-4.174c0-2.466,1.568-4.178,3.833-4.178c2.084,0,3.613,1.599,3.613,3.763
			c0,0.238-0.021,0.511-0.036,0.846h-5.911c0.141,2.672,2.078,2.672,2.39,2.672c1.633,0,2.093-1.248,2.282-1.728L249.708,82.828
			 M248.333,80.283c-0.141-2.449-1.96-2.449-2.182-2.449c-1.343,0-2.15,0.879-2.234,2.449H248.333z"/>
		<polygon fill="#292970" points="256.346,73.561 264.058,73.561 263.596,74.919 258.023,74.919 258.023,78.457 263.131,78.457 
			263.131,79.834 258.023,79.834 258.023,83.721 263.613,83.721 264.109,85.097 256.346,85.097 		"/>
		<path fill="#292970" d="M266.087,78.602c0.311-0.703,0.841-1.81,3.491-1.81c3.127,0,3.127,1.555,3.127,2.338l-0.022,3.873
			c0,0.975,0.057,1.055,0.677,1.071v0.912c-0.446,0.128-0.677,0.176-0.915,0.176c-1.118,0-1.201-0.865-1.201-1.552
			c-0.5,0.576-1.375,1.552-2.852,1.552c-1.497,0-2.632-1.104-2.632-2.577c0-0.622,0.294-1.282,0.774-1.741
			c0.6-0.579,1.44-0.881,2.819-1.009c1.22-0.129,1.377-0.176,1.903-0.688c-0.014-0.961-0.357-1.2-1.611-1.2
			c-1.31,0-1.977,0.352-2.37,1.248L266.087,78.602 M271.257,80.155c-0.6,0.432-0.771,0.495-1.75,0.654
			c-0.98,0.16-1.428,0.354-1.805,0.77c-0.277,0.288-0.427,0.64-0.427,1.024c0,0.866,0.65,1.471,1.598,1.471
			c0.585,0,1.186-0.238,1.63-0.64c0.57-0.511,0.754-1.009,0.754-1.999V80.155z"/>
		<path fill="#292970" d="M276.347,82.281c0.136,1.198,0.945,1.791,2.438,1.791c1.168,0,2.046-0.513,2.046-1.185
			c0-0.687-0.635-1.07-2.213-1.325c-1.654-0.29-3.167-0.8-3.167-2.466c0-1.374,1.346-2.321,3.303-2.321
			c2.453,0,3.194,1.6,3.265,2.129l-1.016,0.638c-0.29-1.133-1.031-1.662-2.288-1.662c-1.077,0-1.94,0.481-1.94,1.088
			c0,0.64,0.655,1.008,2.201,1.248c0.38,0.065,3.25,0.34,3.282,2.464c0,0.065,0,2.482-3.64,2.482c-1.018,0-1.844-0.24-2.462-0.707
			c-0.497-0.365-0.705-0.702-0.964-1.534L276.347,82.281"/>
		<path fill="#292970" d="M283.862,77.167h1.357l2.221,6.173l1.976-6.173h1.378l-2.739,8.205l-0.135,0.45
			c-0.435,1.344-0.738,2.306-2.684,2.306c-0.238,0-0.515-0.02-0.977-0.067v-1.12c0.497,0.079,0.705,0.096,0.943,0.096
			c0.914,0,1.141-0.24,1.636-1.776L283.862,77.167"/>
	</g>
</g>
</svg>
