<?xml version="1.0" encoding="UTF-8" standalone="no"?>
<svg xmlns="http://www.w3.org/2000/svg" width="180" height="58">
<path style="fill:#000" d="m 111.22832,0.86333 c -5.99346,0.29942 -11.428875,2.35193 -15.846985,4.3101 -1.24655,0.55253 -3.39576,2.16823 -4.58739,2.21783 -1.40404,0.06 -3.96189,-1.3557 -5.85955,-1.90263 C 76.540025,3.07262 63.768017,-0.0709 57.227803,5.01403 49.013768,3.82261 41.441635,5.86006 35.221262,7.70646 34.870068,2.79165 30.279851,-0.15169 24.930023,1.37218 c -3.579132,1.0176 -6.515571,3.038 -10.131744,4.43548 -7.0823411,2.7323 -14.23589424,8.5519 -13.7773472,17.7306 0.217408,4.3178 2.096229,7.8322 3.326613,10.9216 1.283568,3.2231 2.6278691,5.794 4.7506801,9.5014 -0.583854,1.0899 -1.103177,1.7829 -1.268367,3.0076 -1.375657,10.2893 12.3741181,10.6273 19.6331001,7.5988 6.261204,-2.6165 12.823201,-7.2475 17.259659,-10.6064 -3.559325,15.2356 20.37073,15.9087 26.438228,8.233 8.53193,6.375 26.97155,5.6678 36.095285,0.3152 8.42548,6.7861 27.11524,4.201 38.47251,1.5835 5.8738,-1.3538 11.05274,-2.4446 14.88622,-5.2216 3.92291,-2.8481 6.37878,-7.2095 7.43552,-12.8241 -0.8052,-2.1513 -2.18058,-3.7235 -3.4823,-5.3849 0.64847,-1.3634 0.83623,-3.8374 0.47848,-5.7 4.9641,-3.5545 9.09787,-9.0912 12.82416,-13.7736 0.44451,-0.5609 1.29397,-1.2941 1.10129,-2.0582 -16.98317,-2.646 -33.36119,-7.92445 -53.03216,-6.96469 -1.24193,0.0591 -2.64783,0.41863 -3.8013,0.31519 -1.69472,-0.15288 -3.15473,-0.99479 -4.74688,-1.26457 -2.10479,-0.35837 -4.16554,-0.45298 -6.16335,-0.35316 z"/>
<path style="fill:#fff" d="m 112.26953,7.1054688 c -7.68204,0.1544 -14.864679,3.9837442 -20.525389,7.0898432 -6.03615,3.3114 -11.424575,7.200932 -15.203125,11.082032 1.36613,-2.3279 2.817627,-4.628788 4.435546,-6.804688 1.64053,-2.2093 3.466977,-4.207681 4.910157,-6.175781 -3.15588,-0.8251 -6.320566,-1.699153 -9.503907,-2.3769531 -4.524679,-0.9627 -10.816286,-2.5584094 -14.564453,-0.4746094 -1.084203,0.6020005 -1.97003,2.0838965 -3.007812,2.2167965 -0.856231,0.1118 -2.270648,-0.511206 -3.326172,-0.628906 -3.868717,-0.4302 -7.426227,-0.07459 -10.921875,0.628906 -3.27424,0.656 -10.198346,1.821803 -11.083984,4.908203 -0.568715,1.981301 0.696748,3.899976 0.474609,5.859376 -0.217521,1.9283 -2.067977,4.475671 -3.007813,6.013671 -1.150553,1.8845 -2.320617,3.555341 -4.27539,4.431641 -1.184822,-5.8985 0.102936,-11.139378 1.107422,-16.142578 0.620725,-3.0825 1.872563,-6.237397 0.794922,-9.341797 -3.018074,-0.4197 -5.559239,1.9697625 -8.548828,3.164063 -5.615545,2.248199 -11.87037,4.293724 -12.664063,10.765624 -0.447148,3.6437 0.9205655,5.964535 1.8984375,8.552735 2.0952515,5.5604 4.6837415,10.2647 7.7578125,14.5625 -0.838295,1.5398 -2.812352,1.941981 -3.011719,4.113281 0.893367,1.2655 2.75771,1.427734 4.595703,1.427734 5.312713,-0.0116 9.667765,-2.686756 13.613282,-4.910156 8.591961,-4.8324 14.363131,-12.275753 20.423828,-19.314453 1.064274,-1.2371 1.940842,-2.726516 3.326172,-3.478515 1.361268,6.2535 -1.28636,9.593949 -3.169922,14.71875 -0.725475,1.9747 -3.017888,8.155131 -1.900391,11.082031 1.221765,3.2203 11.644592,3.360084 14.408203,1.271484 1.391897,-1.051 1.950156,-3.431956 2.697266,-4.910156 0.95321,-1.9016 1.776597,-3.54421 2.529297,-5.224609 0.04278,6.9352 5.195625,8.972018 10.765625,10.449218 11.84068,3.1301 23.776791,-2.461378 30.234371,-6.330078 -0.80689,5.138 1.19382,5.651935 5.23047,6.490234 10.44126,2.155101 20.95325,-0.331053 29.44531,-2.376953 7.78508,-1.8741 14.04771,-3.200781 15.20118,-10.925781 -1.24559,-1.0776 -4.36196,-0.944159 -6.49414,-0.630859 -6.2775,0.919 -12.35727,4.093822 -20.73828,3.482422 -1.52872,-0.112 -4.82995,-0.644879 -5.06836,-1.580079 -0.36748,-1.462899 2.24819,-2.486062 4.43945,-2.851562 6.28185,-1.0633 15.36273,0.01086 20.41797,-1.902344 2.43041,-0.9161 5.35683,-3.561334 5.0625,-6.490234 -0.19269,-1.9776 -2.77135,-3.011909 -5.22071,-3.16211 -6.92762,-0.433799 -11.88009,3.607491 -19.15234,2.212891 0.90969,-1.1498 1.07255,-3.039131 2.21484,-3.957031 5.3165,-0.1111 10.48177,0.947066 15.51368,0.634766 6.99688,-0.4377 10.94343,-3.385004 14.25195,-7.283204 0.35338,-0.4204 1.24161,-0.873884 0.94922,-1.583984 -12.15201,-1.8483 -28.71917,-6.7460563 -43.69922,-4.9101562 -1.93914,0.2344 -3.33188,2.2591402 -4.60547,3.0566402 0.002,-0.017 0.0177,-0.02283 0.0117,-0.04883 0.24304,-1.0813 0.70087,-1.9413622 0.79297,-3.1640622 -2.63377,-0.9278 -5.24987,-1.2844219 -7.81055,-1.2324219 l 0,-0.00195 z m 5.91211,7.7246092 c 1.47987,1.687 4.71941,1.614563 6.64648,2.851563 -2.60124,0.6684 -5.87688,0.664978 -8.23437,1.580078 0.55535,-1.4514 1.05514,-2.958341 1.58789,-4.431641 z M 99.8125,20.685547 c -0.77846,3.5518 -2.407946,7.618641 -3.322266,11.556641 5.032636,0.0711 10.340806,-0.952372 15.515626,-1.263672 0.69971,-0.936 1.04299,-2.226422 1.42578,-3.482422 1.03657,1.4696 1.76805,4.215878 0.79297,6.330078 -7.85895,-0.1092 -13.50975,6.323984 -21.216798,6.333984 -3.45287,0.0038 -6.38469,-1.983975 -4.75,-5.859375 2.308151,-5.4684 8.030598,-9.287934 11.554688,-13.615234 z"/>
</svg>
