<?xml version="1.0" encoding="UTF-8" standalone="no"?>
<svg width="962px" height="198px" viewBox="0 0 962 198" version="1.1" xmlns="http://www.w3.org/2000/svg" xmlns:xlink="http://www.w3.org/1999/xlink">
    <!-- Generator: Sketch 39.1 (31720) - http://www.bohemiancoding.com/sketch -->
    <title>Slice 1</title>
    <desc>Created with Sketch.</desc>
    <defs></defs>
    <g id="Page-1" stroke="none" stroke-width="1" fill="none" fill-rule="evenodd">
        <g id="wework" fill="#333333">
            <path d="M8.171,95.65 C13.471,96.95 16.471,98.05 20.871,105.85 C36.171,133.95 51.571,164.85 66.371,195.35 C68.271,196.95 70.371,197.25 73.671,197.25 C76.771,197.25 78.871,196.95 80.871,195.35 C87.971,181.95 106.771,146.05 114.771,132.05 C124.171,149.35 140.371,180.75 146.871,195.35 C148.671,196.95 150.871,197.25 153.971,197.25 C157.071,197.25 159.371,196.95 161.171,195.35 C174.271,166.75 188.571,137.15 202.971,109.55 C207.971,99.65 210.171,96.95 220.371,95.05 L224.771,94.35 C227.271,91.85 226.571,86.05 223.871,84.85 C216.971,85.45 208.871,85.65 199.871,85.65 C192.071,85.65 184.671,85.45 174.371,84.85 C171.271,86.05 171.271,92.35 173.171,94.35 L178.471,95.35 C183.871,96.45 186.271,97.85 186.271,99.15 C186.271,101.05 185.371,104.75 183.371,109.55 C178.371,122.05 173.571,135.25 165.971,150.85 C159.071,137.85 150.471,120.35 144.771,107.45 C142.971,102.95 142.271,101.25 142.271,99.15 C142.271,97.75 146.571,96.45 153.871,95.15 L158.471,94.45 C160.671,93.35 160.971,85.25 157.571,84.95 C137.671,85.55 122.071,85.75 102.371,85.75 L39.371,85.75 C26.271,85.75 16.271,85.55 3.471,84.95 C0.271,86.25 0.271,92.25 2.471,94.45 L8.171,95.65 L8.171,95.65 Z M78.871,95.65 C84.571,95.65 89.571,95.85 93.871,96.65 C100.071,97.75 105.471,106.45 105.471,110.65 C105.471,112.75 105.471,115.15 104.571,118.75 C102.971,124.15 92.471,143.55 88.071,150.85 C82.771,142.25 70.271,117.95 65.971,108.55 C64.071,104.55 63.171,101.25 63.171,99.65 C62.971,96.65 68.871,95.65 78.871,95.65 L78.871,95.65 Z M268.371,197.25 C287.071,197.25 310.171,189.45 322.971,166.55 C322.971,161.95 318.271,159.75 314.871,160.25 C306.471,172.75 294.571,174.25 285.871,174.25 C256.871,174.25 241.871,154.55 241.871,134.45 C241.871,130.15 242.571,129.55 249.671,129.55 L309.371,129.55 C319.071,129.55 320.571,125.75 320.571,120.65 C320.571,99.95 303.171,81.85 270.671,81.85 C231.771,81.85 203.371,108.25 203.371,142.25 C203.671,171.65 226.371,197.25 268.371,197.25 L268.371,197.25 Z M268.771,94.35 C279.371,94.35 285.271,100.25 285.271,109.15 C285.271,111.85 284.571,114.65 283.171,115.35 C279.671,117.25 274.771,117.75 270.371,117.75 L258.771,117.75 C248.771,117.75 244.371,117.55 244.371,113.75 C244.471,105.05 255.671,94.35 268.771,94.35 L268.771,94.35 Z M330.071,95.65 C335.471,96.95 338.471,98.05 342.871,105.85 C358.171,133.95 373.471,164.85 388.371,195.35 C390.271,196.95 392.371,197.25 395.571,197.25 C398.671,197.25 400.771,196.95 402.771,195.35 C409.971,181.95 428.671,146.05 436.771,132.05 C446.071,149.35 462.271,180.75 468.871,195.35 C470.771,196.95 472.871,197.25 475.971,197.25 C479.071,197.25 481.371,196.95 483.171,195.35 C496.271,166.75 510.571,137.15 524.971,109.55 C529.971,99.65 532.071,96.95 542.371,95.05 L546.771,94.35 C549.271,91.85 548.571,86.05 545.771,84.85 C538.871,85.45 530.771,85.65 521.771,85.65 C513.971,85.65 506.571,85.45 496.271,84.85 C493.171,86.05 493.171,92.35 495.071,94.35 L500.371,95.35 C505.671,96.45 508.171,97.85 508.171,99.15 C508.171,101.05 507.271,104.75 505.371,109.55 C500.371,122.05 495.371,135.25 487.871,150.85 C480.971,137.85 472.371,120.35 466.671,107.45 C464.771,102.95 464.171,101.25 464.171,99.15 C464.171,97.75 468.471,96.45 475.771,95.15 L480.371,94.45 C482.571,93.35 482.971,85.25 479.471,84.95 C459.571,85.55 443.971,85.75 424.271,85.75 L361.271,85.75 C348.171,85.75 338.171,85.55 325.371,84.95 C322.271,86.25 322.271,92.25 324.471,94.45 L330.071,95.65 L330.071,95.65 Z M400.871,95.65 C406.571,95.65 411.571,95.85 415.871,96.65 C422.071,97.75 427.471,106.45 427.471,110.65 C427.471,112.75 427.471,115.15 426.571,118.75 C424.971,124.15 414.471,143.55 410.071,150.85 C404.671,142.25 392.271,117.95 387.971,108.55 C386.171,104.55 385.171,101.25 385.171,99.65 C384.971,96.65 390.871,95.65 400.871,95.65 L400.871,95.65 Z M596.971,197.25 C635.271,197.25 668.571,178.65 668.571,139.25 C668.571,101.25 635.471,81.85 598.771,81.85 C561.971,81.85 526.771,103.15 527.071,141.65 C527.471,178.85 559.771,197.25 596.971,197.25 L596.971,197.25 Z M596.971,94.35 C614.671,94.35 623.371,116.95 623.771,143.05 C623.971,167.35 618.071,184.85 600.271,184.85 C582.271,184.85 571.971,164.05 571.971,135.75 C571.971,106.45 583.271,94.35 596.971,94.35 L596.971,94.35 Z M721.771,105.05 C723.671,105.05 726.471,105.25 733.571,110.45 C737.571,113.75 741.371,115.35 745.671,115.35 C755.671,115.35 765.671,110.25 765.671,97.85 C765.671,87.65 756.871,81.95 748.471,81.95 C735.371,81.95 726.371,90.85 717.971,95.45 C715.471,94.95 714.871,94.15 714.871,92.25 C714.871,89.85 715.571,86.05 716.071,80.65 C714.871,79.05 712.971,78.15 710.571,78.15 C700.871,83.65 679.371,90.85 664.971,94.45 C662.871,96.05 662.871,100.85 664.971,102.55 L669.471,104.95 C675.371,108.15 675.371,111.35 675.371,122.25 L675.371,162.95 C675.371,181.75 674.171,184.25 663.771,185.05 L657.871,185.55 C655.371,187.25 655.371,193.35 658.171,195.05 C668.471,194.45 682.171,194.25 694.971,194.25 C709.571,194.25 722.071,194.45 737.071,195.05 C739.871,193.35 739.871,187.25 737.271,185.55 L727.271,184.85 C716.971,184.05 715.671,181.85 715.671,162.95 L715.671,121.45 C715.771,111.05 717.371,105.05 721.771,105.05 L721.771,105.05 Z M843.771,183.95 L839.771,184.75 C837.171,187.15 837.871,192.75 840.971,194.15 C849.771,193.65 860.871,193.35 879.371,193.35 C897.471,193.35 908.971,193.55 918.571,194.15 C921.671,193.15 922.371,186.65 919.771,184.75 L915.171,183.95 C907.071,182.65 901.171,181.25 896.871,177.75 C889.071,171.55 861.571,134.85 856.071,126.25 C854.371,124.15 853.771,122.55 853.771,121.75 C853.771,120.95 854.071,119.85 855.571,118.15 C859.971,114.45 864.771,110.35 876.471,102.55 C884.771,96.95 891.471,94.25 897.371,93.15 L907.271,91.25 C909.471,89.15 909.171,83.15 906.071,81.85 C887.771,84.35 861.871,85.65 847.171,85.65 L839.771,85.65 C836.671,86.85 836.271,92.65 839.071,95.05 L846.871,96.25 C849.671,96.45 852.771,97.55 852.771,98.85 C852.771,100.55 851.271,103.35 845.371,109.55 L832.271,122.95 C825.971,129.15 819.471,130.45 814.171,130.45 C810.771,130.45 809.771,129.65 809.771,126.65 L809.771,42.05 C809.771,25.05 810.171,13.75 810.771,2.65 C809.571,1.25 807.271,0.75 805.371,0.75 C789.471,6.65 770.471,13.15 757.671,15.75 C755.471,17.45 755.471,22.25 757.671,23.85 L762.971,26.55 C769.171,29.75 769.171,32.75 769.171,43.55 L769.171,162.05 C769.171,180.85 767.971,183.05 756.571,184.15 L750.671,184.65 C748.171,186.25 748.171,192.45 750.971,194.05 C761.871,193.55 774.671,193.25 788.971,193.25 C803.371,193.25 816.371,193.45 826.371,194.05 C829.071,192.45 829.071,186.25 826.571,184.65 L821.571,184.15 C810.571,182.95 809.371,180.85 809.371,162.05 L809.371,146.45 C809.371,141.35 810.971,140.05 813.071,140.05 C816.171,140.05 818.671,141.15 820.871,144.05 L843.171,173.15 C845.671,176.35 848.471,180.65 848.471,181.85 C848.771,182.95 846.971,183.45 843.771,183.95 L843.771,183.95 Z M944.871,196.85 C935.971,196.85 928.671,189.55 928.671,180.65 C928.671,171.75 935.971,164.45 944.871,164.45 C953.771,164.45 961.071,171.75 961.071,180.65 C961.071,189.65 953.771,196.85 944.871,196.85 L944.871,196.85 Z M944.871,167.65 C937.671,167.65 931.771,173.55 931.771,180.75 C931.771,187.95 937.671,193.85 944.871,193.85 C952.071,193.85 957.971,187.95 957.971,180.75 C957.771,173.45 952.071,167.65 944.871,167.65 L944.871,167.65 Z M947.671,188.85 L944.471,182.95 L941.871,182.95 L941.871,188.85 L938.271,188.85 L938.271,172.35 L945.971,172.35 C949.471,172.35 951.471,174.55 951.471,177.65 C951.471,180.55 949.671,182.15 947.871,182.55 L951.571,188.85 L947.671,188.85 L947.671,188.85 L947.671,188.85 Z M947.971,177.65 C947.971,176.25 946.871,175.45 945.471,175.45 L941.771,175.45 L941.771,179.95 L945.471,179.95 C946.871,179.85 947.971,179.05 947.971,177.65 L947.971,177.65 Z" id="Shape"></path>
        </g>
    </g>
</svg>